<?xml version="1.0" encoding="UTF-8" standalone="no"?>
<svg
   xmlns:dc="http://purl.org/dc/elements/1.1/"
   xmlns:cc="http://creativecommons.org/ns#"
   xmlns:rdf="http://www.w3.org/1999/02/22-rdf-syntax-ns#"
   xmlns:svg="http://www.w3.org/2000/svg"
   xmlns="http://www.w3.org/2000/svg"
   xmlns:sodipodi="http://sodipodi.sourceforge.net/DTD/sodipodi-0.dtd"
   xmlns:inkscape="http://www.inkscape.org/namespaces/inkscape"
   enable-background="new 0 0 128 128"
   height="122.78"
   id="Слой_1"
   version="1.1"
   viewBox="0 0 122.78 122.78"
   width="122.78"
   x="0px"
   xml:space="preserve"
   y="0px"
   inkscape:version="0.48.4 r9939"
   sodipodi:docname="bell.svg"
   inkscape:export-filename="/home/kintaro/workspace/PalmaBici/res/drawable-xxhdpi/bell.png"
   inkscape:export-xdpi="88.518059"
   inkscape:export-ydpi="88.518059"><metadata
     id="metadata11"><rdf:RDF><cc:Work
         rdf:about=""><dc:format>image/svg+xml</dc:format><dc:type
           rdf:resource="http://purl.org/dc/dcmitype/StillImage" /><dc:title></dc:title></cc:Work></rdf:RDF></metadata><defs
     id="defs9" /><sodipodi:namedview
     pagecolor="#ffffff"
     bordercolor="#666666"
     borderopacity="1"
     objecttolerance="10"
     gridtolerance="10"
     guidetolerance="10"
     inkscape:pageopacity="0"
     inkscape:pageshadow="2"
     inkscape:window-width="1600"
     inkscape:window-height="841"
     id="namedview7"
     showgrid="false"
     inkscape:zoom="2.6074563"
     inkscape:cx="-18.529608"
     inkscape:cy="79.101233"
     inkscape:window-x="0"
     inkscape:window-y="26"
     inkscape:window-maximized="1"
     inkscape:current-layer="Слой_1" /><g
     id="g3795"
     transform="matrix(0.99363219,0,0,0.99363125,-2.5919999,-3.8644464)"><path
       sodipodi:nodetypes="ccccccccc"
       d="M 120.66699,67.578125 C 91.756836,54.690918 76.370117,29.719727 57.249023,11.056152 55.401367,9.0947265 51.313476,7.508789 48.500976,7.5966796 22.443201,10.147606 21.867061,10.554469 6.8554687,31.640625 c -1.480957,2.390625 -2.1523438,6.724609 -1.378418,9.306152 6.6030273,25.891114 20.5361333,51.70166 17.2402343,83.183103 -0.600098,3.38574 1.830566,4.40332 5.921875,2.04102 45.542038,-25.87469 51.230086,-29.29198 90.83545,-52.444338 4.09082,-2.363281 4.42578,-4.975585 1.19238,-6.148437 z"
       id="path5"
       inkscape:connector-curvature="0"
       style="fill:#cccccc" /><path
       transform="matrix(-1.0580337,0.61332061,-0.61332061,-1.0580337,-232.24082,214.80989)"
       sodipodi:end="3.1410076"
       sodipodi:start="0"
       d="m -256.54238,36.610168 c 0,4.043848 -3.27818,7.322034 -7.32203,7.322034 -4.04218,0 -7.31967,-3.275576 -7.32203,-7.31775 l 7.32203,-0.0043 z"
       sodipodi:ry="7.3220339"
       sodipodi:rx="7.3220339"
       sodipodi:cy="36.610168"
       sodipodi:cx="-263.86441"
       id="path2989"
       style="fill:#cccccc;fill-rule:evenodd;stroke:#cccccc;stroke-width:1px;stroke-linecap:butt;stroke-linejoin:miter;stroke-opacity:1"
       sodipodi:type="arc" /><path
       transform="matrix(1.0580337,-0.61332061,0.61332061,1.0580337,305.20262,-82.733071)"
       sodipodi:end="3.1410076"
       sodipodi:start="0"
       d="m -256.54238,36.610168 c 0,4.043848 -3.27818,7.322034 -7.32203,7.322034 -4.04218,0 -7.31967,-3.275576 -7.32203,-7.31775 l 7.32203,-0.0043 z"
       sodipodi:ry="7.3220339"
       sodipodi:rx="7.3220339"
       sodipodi:cy="36.610168"
       sodipodi:cx="-263.86441"
       id="path2989-6"
       style="fill:#cccccc;fill-rule:evenodd;stroke:#cccccc;stroke-width:1px;stroke-linecap:butt;stroke-linejoin:miter;stroke-opacity:1"
       sodipodi:type="arc" /></g></svg>