<?xml version="1.0" encoding="UTF-8" standalone="no"?>
<!-- Created with Inkscape (http://www.inkscape.org/) -->

<svg
   xmlns:dc="http://purl.org/dc/elements/1.1/"
   xmlns:cc="http://creativecommons.org/ns#"
   xmlns:rdf="http://www.w3.org/1999/02/22-rdf-syntax-ns#"
   xmlns:svg="http://www.w3.org/2000/svg"
   xmlns="http://www.w3.org/2000/svg"
   xmlns:sodipodi="http://sodipodi.sourceforge.net/DTD/sodipodi-0.dtd"
   xmlns:inkscape="http://www.inkscape.org/namespaces/inkscape"
   id="svg2"
   version="1.1"
   inkscape:version="0.48.4 r9939"
   width="414.04999"
   height="240"
   sodipodi:docname="bike.svg"
   inkscape:export-filename="/home/kintaro/workspace/PalmaBici/res/drawable-xxhdpi/bike.png"
   inkscape:export-xdpi="27"
   inkscape:export-ydpi="27">
  <metadata
     id="metadata8">
    <rdf:RDF>
      <cc:Work
         rdf:about="">
        <dc:format>image/svg+xml</dc:format>
        <dc:type
           rdf:resource="http://purl.org/dc/dcmitype/StillImage" />
        <dc:title />
      </cc:Work>
    </rdf:RDF>
  </metadata>
  <defs
     id="defs6" />
  <sodipodi:namedview
     pagecolor="#ffffff"
     bordercolor="#666666"
     borderopacity="1"
     objecttolerance="10"
     gridtolerance="10"
     guidetolerance="10"
     inkscape:pageopacity="0"
     inkscape:pageshadow="2"
     inkscape:window-width="1600"
     inkscape:window-height="841"
     id="namedview4"
     showgrid="false"
     inkscape:zoom="1.1359673"
     inkscape:cx="387.93903"
     inkscape:cy="174.35488"
     inkscape:window-x="0"
     inkscape:window-y="26"
     inkscape:window-maximized="1"
     inkscape:current-layer="svg2" />
  <path
     style="fill:#fefefe"
     d="m 77.690849,229.90536 c -8.804565,-0.65871 -16.879174,-2.66731 -24.601812,-6.11984 -14.377274,-6.42758 -26.255785,-17.29099 -33.991459,-31.08673 -4.908877,-8.75444 -7.829048,-18.18401 -8.889466,-28.70523 -0.2774826,-2.75312 -0.2774826,-10.36438 0,-13.1175 0.968134,-9.60565 3.304139,-17.74299 7.46803,-26.01463 1.431958,-2.84459 2.568557,-4.81139 4.253325,-7.36 7.810655,-11.81528 18.878542,-21.117253 31.826147,-26.748243 6.681845,-2.905923 13.677505,-4.728623 21.510143,-5.604497 2.912363,-0.3256 11.084869,-0.353284 14.054511,-0.04767 9.24233,0.951591 17.047772,3.107866 24.718942,6.828527 1.1365,0.55119 2.08312,0.98138 2.1036,0.95581 0.0346,-0.0431 20.63776,-56.898686 20.70974,-57.149669 0.0235,-0.08158 -5.17102,-9.097273 -6.45155,-11.196989 -0.0876,-0.143642 1.14382,-1.539175 6.4926,-7.357991 l 6.60071,-7.180707 14.24978,0 14.24977,0 0.002,0.578784 c 9.2e-4,0.318266 0.0746,1.992374 0.16347,3.720291 0.0888,1.727824 0.16243,3.327591 0.16347,3.554924 l 0.002,0.413416 -12.42919,0 -12.4292,0 -2.48388,2.671808 -2.48389,2.671808 2.90263,5.222616 2.90265,5.222524 -3.59218,12.74643 c -1.9757,7.010574 -3.61813,12.83324 -3.64986,12.93939 -0.0549,0.183516 2.41116,0.192866 50.7062,0.192866 l 50.76387,0 0.72166,-2.205408 c 0.39689,-1.213024 0.72163,-2.250416 0.72163,-2.305233 0,-0.055 -0.21081,-0.13255 -0.46849,-0.172608 -6.24575,-0.97295 -15.45717,-3.881074 -21.30222,-6.72549 -3.62578,-1.7644 -5.0133,-2.986408 -5.20224,-4.581591 -0.1286,-1.085883 0.57221,-2.109525 1.87968,-2.745599 1.39265,-0.677417 0.7564,-0.618109 12.47177,-1.162975 4.6779,-0.217525 20.73537,-1.005858 23.53442,-1.155367 1.18223,-0.06325 4.75373,-0.236133 7.93667,-0.38445 13.68622,-0.637541 15.71796,-0.679433 17.11163,-0.352366 0.91297,0.214133 1.72424,0.679616 2.11582,1.21385 0.1875,0.255841 0.22804,0.472908 0.22643,1.212566 -0.002,0.791908 -0.0458,0.991192 -0.36479,1.646883 -0.51367,1.056092 -1.42578,2.221083 -3.12265,3.988416 -2.19962,2.290933 -3.79998,3.563174 -5.94625,4.727157 -3.06439,1.661917 -7.92339,3.104475 -13.60272,4.038283 l -0.77162,0.126867 -1.91038,5.170549 c -1.15641,3.129774 -1.87605,5.226282 -1.8234,5.312082 0.0889,0.144741 22.93759,28.469743 23.56206,29.209303 l 0.34408,0.40755 1.54323,-0.88366 c 7.45075,-4.26645 16.43948,-7.324539 25.5186,-8.681847 4.14119,-0.619117 5.80039,-0.724992 11.29872,-0.721142 5.60936,0 6.91432,0.0924 11.24361,0.761933 7.82932,1.210734 15.74607,3.853575 22.72477,7.586156 13.30688,7.117183 24.08791,18.107283 30.7909,31.387943 4.24281,8.40638 6.60648,16.5934 7.57263,26.22922 0.24398,2.43329 0.27887,10.01247 0.0571,12.40103 -0.80543,8.67432 -2.67413,16.01426 -5.9813,23.4937 -5.46376,12.35667 -14.73899,23.41377 -25.89766,30.87278 -11.04402,7.38228 -22.87729,11.40086 -36.15591,12.27829 -2.19496,0.14511 -8.34064,0.0779 -10.41688,-0.11376 -12.51324,-1.15546 -23.94933,-5.20721 -34.30388,-12.15353 -14.44745,-9.6921 -25.02299,-24.18734 -29.79322,-40.83593 -0.18136,-0.63296 -0.26366,-0.77972 -0.41733,-0.74424 -0.10529,0.0238 -1.72916,0.31918 -3.60861,0.65541 -5.09906,0.91218 -14.18295,2.54834 -16.31426,2.93838 l -1.87393,0.34301 -0.36495,0.78742 c -0.74243,1.60206 -2.30028,3.27965 -4.30459,4.63549 -0.76824,0.51966 -1.07856,0.792 -1.04853,0.91997 0.0235,0.10001 0.88712,4.1998 1.91925,9.11056 1.03214,4.91086 1.90322,9.0156 1.93573,9.12166 0.0541,0.17637 0.27456,0.19296 2.56677,0.19296 l 2.50764,0 0.19249,2.54677 c 0.10589,1.40076 0.17701,2.55915 0.15806,2.57418 -0.019,0.0156 -1.8202,0.10955 -4.0028,0.20983 -8.25212,0.37913 -10.92876,0.50728 -11.43651,0.54771 l -0.5236,0.0412 0,-2.79217 0,-2.79216 1.90276,-0.0302 1.90277,-0.0302 -2.37125,-9.23588 c -2.29611,-8.94318 -2.37998,-9.2377 -2.64683,-9.29527 -3.40972,-0.73544 -5.88504,-2.28424 -7.49493,-4.68967 -0.67487,-1.00833 -0.98575,-1.71975 -1.34137,-3.06936 -0.37361,-1.41799 -0.26523,-4.02206 0.22058,-5.2998 0.0992,-0.26098 -0.24228,-0.67302 -5.25677,-6.3426 -2.9496,-3.33492 -10.27275,-11.61609 -16.27369,-18.40254 -6.00094,-6.78654 -15.84558,-17.91954 -21.877,-24.74019 -6.03142,-6.82054 -13.61966,-15.40201 -16.86276,-19.06996 -11.56659,-13.081843 -11.72382,-13.256373 -11.80643,-13.101093 -0.0435,0.0816 -0.76383,2.00567 -1.60066,4.27506 l -1.52151,4.126193 0.48368,0.39334 c 3.16125,2.57043 7.19391,6.46213 9.60238,9.26686 8.66304,10.08837 14.38003,21.9867 16.74455,34.84928 1.2045,6.55224 1.4581,14.07101 0.7021,20.81768 -2.07587,18.52601 -11.26274,35.56326 -25.67526,47.61541 -8.09413,6.76848 -17.62879,11.72508 -27.77832,14.4408 -3.740697,1.00081 -7.82917,1.73644 -12.015233,2.16177 -2.066013,0.21001 -9.489613,0.30644 -11.574304,0.15052 z m 10.527105,-14.04168 c 10.939639,-1.15298 20.878816,-5.02901 29.486916,-11.49903 11.51685,-8.65626 19.54852,-21.30855 22.37166,-35.24188 0.79581,-3.92755 1.16158,-7.6076 1.16231,-11.69346 0.003,-14.17661 -5.11255,-27.78508 -14.47882,-38.52043 -1.42182,-1.62965 -4.2663,-4.44987 -4.37076,-4.33345 -0.0442,0.0495 -0.3179,0.70959 -0.60821,1.46749 -2.36718,6.17962 -5.49113,12.23447 -8.95746,17.36139 -5.12783,7.5844 -11.09311,13.74862 -21.14433,21.84957 l -1.113299,0.89723 -0.07458,0.80245 c -0.390473,4.20136 -3.463595,7.15275 -7.444384,7.14945 -4.504174,0 -8.117537,-3.83561 -7.79497,-8.26659 0.08836,-1.21367 0.288455,-1.93893 0.846081,-3.06643 1.084239,-2.19239 3.578243,-3.95248 5.91459,-4.17413 0.785201,-0.0743 0.818177,-0.095 2.788078,-1.73195 12.241975,-10.17326 18.384574,-17.95136 23.189504,-29.36404 0.91668,-2.17727 1.87828,-4.77015 2.93527,-7.91459 0.87352,-2.59866 0.94859,-2.88622 0.7809,-2.99099 -0.67726,-0.42295 -3.35301,-1.80538 -4.73346,-2.44558 -5.87229,-2.72314 -12.160545,-4.421723 -19.306196,-5.214823 -2.00958,-0.22303 -8.659236,-0.18673 -10.912915,0.0596 -13.758111,1.503523 -25.908154,7.273663 -35.552745,16.884083 -9.15477,9.12239 -14.952255,20.63829 -16.743223,33.25822 -0.463919,3.26893 -0.553403,4.61083 -0.553403,8.29904 0,3.56941 0.08645,4.93937 0.504302,7.99178 1.966314,14.3637 9.336546,27.61228 20.598408,37.02745 9.697453,8.10728 21.53151,12.79823 34.337101,13.61113 1.460034,0.0927 7.351867,-0.0412 8.873632,-0.20149 z m 234.462316,0 c 7.51372,-0.82041 13.98258,-2.69545 20.44794,-5.9268 12.45101,-6.22288 22.42713,-16.81908 27.88763,-29.62097 2.01095,-4.71451 3.42867,-9.83693 4.11974,-14.88511 0.42222,-3.08431 0.50529,-4.41421 0.50263,-8.04686 -0.003,-3.81581 -0.13959,-5.69305 -0.65452,-8.98196 -2.56609,-16.38917 -11.97558,-30.92439 -25.95846,-40.09921 -6.73513,-4.41925 -14.38265,-7.42775 -22.2091,-8.737113 -3.94326,-0.65973 -5.3717,-0.76945 -9.97813,-0.76643 -4.40609,0 -6.02391,0.11119 -9.92082,0.66422 -7.2081,1.022913 -14.23809,3.196143 -19.54179,6.041013 -0.64995,0.34861 -1.18173,0.6832 -1.18173,0.74351 0,0.0971 2.65587,3.64247 16.14851,21.55697 1.87966,2.49572 6.11577,8.12579 9.41356,12.51122 3.29778,4.38551 6.03161,8.01405 6.07517,8.06327 0.0435,0.0495 0.44229,0.13998 0.88606,0.20148 3.55663,0.4928 6.2873,3.60553 6.46551,7.37 0.0713,1.50645 -0.1343,2.48912 -0.80732,3.85816 -0.42725,0.869 -0.67614,1.20844 -1.4631,1.9954 -0.78708,0.78714 -1.12631,1.03583 -1.99548,1.463 -1.19647,0.58813 -2.21573,0.83591 -3.44938,0.83866 -0.97811,0 -2.32993,-0.24594 -3.04166,-0.55834 l -0.48344,-0.21221 -2.93374,0.55898 c -1.61356,0.30745 -5.61237,1.07314 -8.88624,1.70161 -3.27388,0.62846 -10.49128,2.01318 -16.03868,3.07716 -5.5474,1.06388 -13.53368,2.59581 -17.74726,3.40422 l -7.6611,1.46988 0.0334,0.30616 c 0.0183,0.16839 0.28349,1.08277 0.58922,2.03198 2.24771,6.97858 5.81007,13.39359 10.66072,19.19756 1.34577,1.61022 4.96203,5.24526 6.68445,6.71916 9.42166,8.06218 21.35888,13.10449 33.40012,14.10833 0.78816,0.066 1.65624,0.13841 1.92906,0.1617 1.17512,0.1001 7.20359,-0.044 8.70828,-0.20864 z m -89.17725,-50.77736 c 6.15367,-0.61765 11.19435,-1.12759 11.20151,-1.13328 0.007,-0.009 -0.0577,-0.97762 -0.14433,-2.15985 -0.28357,-3.87319 -0.18601,-9.09232 0.2493,-13.33804 1.80414,-17.59606 9.03577,-32.61692 21.69876,-45.07057 1.74834,-1.71939 1.93262,-1.93536 1.80485,-2.11466 -0.41849,-0.58758 -18.11382,-21.684938 -18.13412,-21.620496 -0.0731,0.232283 -9.40674,28.728516 -11.16338,34.082856 -1.14373,3.48608 -3.575,10.90191 -5.40287,16.47965 -4.05489,12.37343 -6.91702,21.1023 -9.69139,29.55653 -1.15657,3.5244 -2.10286,6.43958 -2.10286,6.47827 0,0.0385 0.1116,0.0458 0.24802,0.0165 0.13641,-0.0293 5.28284,-0.55917 11.43651,-1.17682 z m 28.66018,-4.72404 c 1.48536,-0.24457 3.76716,-0.61692 5.07065,-0.82739 1.30348,-0.21037 6.93355,-1.12832 12.51127,-2.03976 19.63371,-3.20833 26.46317,-4.32034 27.22717,-4.43318 0.42439,-0.0623 0.81286,-0.15171 0.86327,-0.19782 0.0504,-0.0458 -5.15474,-6.89782 -11.56701,-15.22611 -6.41225,-8.32828 -13.39384,-17.39933 -15.51464,-20.15786 -2.12078,-2.75852 -3.87127,-5.03488 -3.88995,-5.05844 -0.0644,-0.0816 -0.76065,0.51645 -2.14241,1.83993 -4.23284,4.05424 -7.96387,9.163 -10.3607,14.18652 -2.57691,5.401 -4.16476,11.09625 -5.05557,18.13313 -0.43163,3.40954 -0.7779,8.98901 -0.7791,12.55374 l -9.2e-4,1.8063 0.46848,-0.0669 c 0.25767,-0.0367 1.6838,-0.26721 3.16916,-0.51187 z m -58.174,-6.25772 c -0.018,-0.22742 -0.18049,-2.19917 -0.36108,-4.38176 -0.18058,-2.18258 -0.32837,-4.0303 -0.32842,-4.10611 -9e-5,-0.1045 -0.42638,-0.13778 -1.7638,-0.13778 -1.60536,0 -1.76392,-0.0174 -1.766,-0.19295 -9.2e-4,-0.10606 -0.0746,-1.06095 -0.16306,-2.1219 -0.0884,-1.06095 -0.16178,-2.13987 -0.16305,-2.39755 l -0.003,-0.4685 6.83435,0 6.83435,0 0.003,0.30314 c 0.002,0.16674 0.0747,1.22081 0.16222,2.34245 0.0874,1.12163 0.16046,2.24867 0.1622,2.5047 l 0.003,0.46548 -1.5207,0.0302 -1.52071,0.0302 0.55173,4.06441 c 0.30343,2.23538 0.56607,4.02114 0.58362,3.96834 0.0175,-0.0532 1.96982,-5.97419 4.33837,-13.15847 2.36858,-7.18438 7.40725,-22.46246 11.19709,-33.95131 9.33211,-28.290167 11.13001,-33.7436 11.22049,-34.034 l 0.0773,-0.247958 -16.84528,0 c -9.26491,0 -32.06095,0.033 -50.65787,0.07333 l -33.81256,0.07333 -0.78115,2.364266 -0.78115,2.364174 0.27154,0.290584 c 0.42986,0.460075 7.5741,8.493006 38.90944,43.749374 16.12496,18.14276 29.32549,32.98679 29.33451,32.98679 0.009,0 0.002,-0.18608 -0.0163,-0.41341 z"
     id="path2993"
     inkscape:connector-curvature="0" />
</svg>
