<?xml version="1.0" encoding="UTF-8" standalone="no"?>
<!-- Created with Inkscape (http://www.inkscape.org/) -->

<svg
   xmlns:dc="http://purl.org/dc/elements/1.1/"
   xmlns:cc="http://creativecommons.org/ns#"
   xmlns:rdf="http://www.w3.org/1999/02/22-rdf-syntax-ns#"
   xmlns:svg="http://www.w3.org/2000/svg"
   xmlns="http://www.w3.org/2000/svg"
   xmlns:sodipodi="http://sodipodi.sourceforge.net/DTD/sodipodi-0.dtd"
   xmlns:inkscape="http://www.inkscape.org/namespaces/inkscape"
   id="svg2"
   version="1.1"
   inkscape:version="0.48.4 r9939"
   width="240"
   height="240"
   sodipodi:docname="palmabici_bw.svg"
   inkscape:export-filename="/home/kintaro/workspace/PalmaBici/res/drawable-ldpi/palmabici_bw.png"
   inkscape:export-xdpi="6"
   inkscape:export-ydpi="6">
  <metadata
     id="metadata8">
    <rdf:RDF>
      <cc:Work
         rdf:about="">
        <dc:format>image/svg+xml</dc:format>
        <dc:type
           rdf:resource="http://purl.org/dc/dcmitype/StillImage" />
        <dc:title></dc:title>
      </cc:Work>
    </rdf:RDF>
  </metadata>
  <defs
     id="defs6" />
  <sodipodi:namedview
     pagecolor="#ffffff"
     bordercolor="#666666"
     borderopacity="1"
     objecttolerance="10"
     gridtolerance="10"
     guidetolerance="10"
     inkscape:pageopacity="0"
     inkscape:pageshadow="2"
     inkscape:window-width="1600"
     inkscape:window-height="841"
     id="namedview4"
     showgrid="false"
     inkscape:zoom="1.1919192"
     inkscape:cx="41.223155"
     inkscape:cy="215.06436"
     inkscape:window-x="0"
     inkscape:window-y="26"
     inkscape:window-maximized="1"
     inkscape:current-layer="svg2" />
  <g
     id="g3781"
     transform="matrix(0.60800924,0,0,0.60800924,-1.5060141e-7,94.07778)">
    <path
       transform="matrix(1.1674622,0,0,1.379728,-31.343392,-231.13035)"
       sodipodi:open="true"
       sodipodi:end="6.2830877"
       sodipodi:start="0"
       d="m 364.95763,198.41949 c 0,79.00247 -75.68854,143.04662 -169.05509,143.04662 -93.36654,0 -169.055082,-64.04415 -169.055082,-143.04662 0,-79.00246 75.688542,-143.046611 169.055082,-143.046611 93.3601,0 169.04597,64.035641 169.05509,143.032651"
       sodipodi:ry="143.04662"
       sodipodi:rx="169.05508"
       sodipodi:cy="198.41949"
       sodipodi:cx="195.90254"
       id="path2991"
       style="fill:#ffffff;fill-opacity:1;stroke:none"
       sodipodi:type="arc" />
    <path
       inkscape:connector-curvature="0"
       id="path2987"
       d="M 184.5,224.00279 C 108.32622,217.31024 44.628527,165.64266 23.064895,93.05674 2.6805023,24.44028 25.534791,-50.91755 80.691319,-96.955837 96.438147,-110.09947 109.41666,-118.16012 126.82452,-125.6081 c 56.7077,-24.26248 120.9115,-18.21667 172.23674,16.21882 50.62834,33.967927 81.1944,90.95922 81.1944,151.38928 0,65.90863 -35.77067,126.37331 -94.41924,159.60082 -28.66529,16.24041 -69.27838,25.21855 -101.33642,22.40197 z m 40.96956,-27.01442 c 12.34316,-2.41392 27.82327,-7.34289 38.7207,-12.32894 31.70384,-14.50589 61.96328,-44.76533 76.46917,-76.46917 17.16579,-37.51727 19.48662,-76.82383 6.77869,-114.80643 -6.3566,-18.9992 -13.20216,-31.832 -25.19135,-47.22417 -15.46016,-19.848337 -36.90226,-37.140101 -58.05651,-46.81909 -37.51727,-17.16579 -76.82383,-19.48662 -114.80643,-6.77869 -18.9992,6.35661 -31.832,13.202159 -47.22417,25.191346 -19.848337,15.460169 -37.140101,36.902264 -46.819091,58.056514 -17.165785,37.51727 -19.486622,76.82383 -6.77869,114.80643 8.17338,24.42934 20.452754,44.3295 38.472604,62.34935 26.003947,26.00395 58.712907,41.50127 97.965517,46.4155 7.82446,0.97959 29.89984,-0.32556 40.46956,-2.39265 z M 182,182.8911 c -3.025,-0.48131 -8.84797,-1.60341 -12.93992,-2.49356 l -7.43993,-1.61847 3.43993,-1.45783 c 4.16409,-1.76473 11.62693,-1.29293 17.93992,1.13415 2.98371,1.14712 6.26901,1.58686 9.75,1.30507 4.95414,-0.40105 5.25,-0.29357 5.25,1.90727 0,2.16171 -0.38393,2.32372 -5.25,2.21537 -2.8875,-0.0643 -7.725,-0.5107 -10.75,-0.992 z m 33.01728,-17.78611 C 212.7066,155.42224 210.22931,145.475 209.5122,143 c -0.71712,-2.475 -3.48823,-13.5 -6.15803,-24.5 l -4.85417,-20 -0.2921,8.967 c -0.18321,5.62426 -0.74238,9.25318 -1.5,9.73469 -2.34349,1.48941 -11.46232,0.81064 -15.8487,-1.17973 l -4.3592,-1.97804 3.79966,-0.022 c 8.36702,-0.0484 13.69018,-5.77594 13.6966,-14.73716 0.003,-4.40585 -0.47601,-5.76162 -3.08761,-8.73606 -3.80588,-4.33465 -9.33369,-6.07761 -14.63388,-4.61416 -3.22155,0.88951 -3.98723,0.74473 -5.98448,-1.1316 -2.96671,-2.78707 -2.90045,-4.6205 0.20971,-5.80298 4.33379,-1.6477 2.78271,-3 -3.44098,-3 -6.5853,0 -8.54828,1.28991 -4.31525,2.83564 2.18564,0.79811 0.68056,1.02281 -7.2702,1.08541 l -10.02642,0.079 0.38146,-4 c 0.32873,-3.44704 0.71254,-4 2.77643,-4 1.31723,0 2.39496,-0.45 2.39496,-1 0,-1.45929 -4.31359,-1.2224 -6.47135,0.35539 -1.14881,0.84003 -1.61031,1.98943 -1.21373,3.02289 0.35193,0.91713 -0.26313,4.08101 -1.3668,7.03085 l -2.00669,5.36334 -3.86321,-0.98058 c -5.16267,-1.31043 -12.16619,1.66363 -15.04781,6.39008 -4.40315,7.22207 -1.41422,17.40084 6.09713,20.76377 l 3.81847,1.70958 -3.50693,1.67234 c -4.82596,2.30134 -12.1918,2.11161 -18.01445,-0.46402 -6.0255,-2.66537 -10.643544,-2.66217 -16.42463,0.0114 -2.48783,1.15052 -6.591582,2.0909 -9.177596,2.10304 -4.635314,0.0218 -4.709489,-0.0305 -8.2057,-5.78593 C 71.247222,104.99917 65.948472,92.727 62.50296,81.82003 59.570257,72.53638 56,53.09584 56,46.41052 L 56,42.01978 102.75,41.75989 149.5,41.5 142,39.67451 C 137.875,38.67049 129.1,36.57953 122.5,35.02793 97.875496,29.23892 79.181687,24.80822 68.662674,22.26772 L 57.825347,19.65034 58.509759,15.07517 C 59.223986,10.3007 63.785812,-5 64.495071,-5 65.10605,-5 89.000762,5.46637 105.75,13.07051 c 2.3375,1.06122 6.1625,2.79776 8.5,3.85898 4.08841,1.85614 8.31207,3.74536 21.25,9.50504 3.3,1.46908 7.35,3.30335 9,4.07615 1.65,0.77279 6.15,2.77083 10,4.44007 3.85,1.66924 8.66415,3.93819 10.69812,5.04211 C 169.89127,42.54005 183,42.93381 183,40.52759 c 0,-0.80982 -2.21686,-4.29732 -4.92635,-7.75 -2.70949,-3.45267 -7.09699,-9.14079 -9.75,-12.64026 C 162.94565,13.04345 163.02058,13.09116 140,2.10161 105.85217,-14.19986 93.247626,-20.21471 84.75,-24.26354 79.9375,-26.55653 76,-28.96632 76,-29.61862 c 0,-1.43207 12.237928,-18.62736 13.574126,-19.07276 0.518328,-0.17277 6.788693,3.99131 13.934144,9.25352 7.14545,5.26221 14.13004,10.32595 15.52132,11.25276 4.95825,3.30298 16.57196,11.70391 22.86025,16.53626 6.51233,5.00452 6.7804,4.8296 2.07063,-1.35116 -2.27926,-2.99113 -18.69889,-25.12646 -33.63921,-45.349084 C 107.94457,-61.56608 106,-64.60545 106,-65.10324 c 0,-0.87579 14.39602,-11.967967 18.11773,-13.959766 1.61519,-0.864422 2.36868,0.13393 6.25683,8.290116 2.43127,5.100089 12.04711,24.79789 21.36854,43.77289 l 16.94804,34.5 13.40443,10 c 7.37244,5.5 13.96693,10.1455 14.65443,10.32332 0.78738,0.20367 1.25,-0.75202 1.25,-2.58227 0,-2.89246 0.0237,-2.90367 5.25,-2.48059 3.48099,0.28179 6.76629,-0.15795 9.75,-1.30507 7.16232,-2.75361 13.73522,-2.93398 19.33291,-0.5305 6.07227,2.60726 11.18781,2.629 17.66709,0.0751 6.43243,-2.53543 12.5852,-2.54288 18.1408,-0.022 5.58438,2.53397 11.46781,2.54121 17.8592,0.022 6.4292,-2.53415 11.58806,-2.53415 17.5,0 5.89574,2.52721 12.75943,2.519 18.3592,-0.022 4.35216,-1.97484 12.56776,-2.62946 14.8438,-1.18276 0.66165,0.42056 1.50111,2.62894 1.86546,4.9075 l 0.66247,4.14285 -4.26503,-1.46942 c -4.72544,-1.62805 -8.40603,-1.17477 -14.17606,1.74583 -4.91771,2.48918 -11.7935,2.38386 -17.5947,-0.26952 -5.85503,-2.678 -11.69373,-2.65913 -17.01384,0.055 -5.47231,2.79176 -12.94894,2.76511 -18.47114,-0.0659 -5.34026,-2.7377 -10.93185,-2.73628 -16.9053,0.004 -5.94461,2.72733 -12.30068,2.74023 -18.47195,0.0375 -6.15844,-2.69713 -11.90181,-2.65414 -17.35904,0.12993 -3.46375,1.76707 -5.55129,2.11922 -10.64146,1.7951 L 198,30.40521 l 0,2.77834 c 0,2.15355 0.581,2.92417 2.5836,3.42679 3.58171,0.89895 11.70782,-0.19256 15.31298,-2.05686 4.11651,-2.12873 11.01459,-1.94844 16.24422,0.42456 5.58262,2.53318 11.47348,2.54049 18.09847,0.0225 6.61717,-2.51505 12.04454,-2.50844 17.61993,0.0215 5.5556,2.52092 11.70837,2.51347 18.1408,-0.022 6.41688,-2.5293 11.60049,-2.53594 17.1408,-0.022 5.5963,2.53938 12.45219,2.54737 18.8592,0.022 5.80974,-2.28999 9.93501,-2.51456 14.679,-0.79911 2.84757,1.02969 3.321,1.67119 3.321,4.5 l 0,3.29911 -52.25,0.0792 -52.25,0.0792 11,2.76206 c 6.05,1.51912 16.85,4.13709 24,5.81769 32.61202,7.66543 45.78108,10.78879 56,13.28175 l 11,2.6835 -0.34095,3.39828 C 336.71394,74.53811 331.12729,92 330.15305,92 329.73887,92 328.9725,91.59953 328.45,91.11007 327.9275,90.6206 324.125,88.7677 320,86.9925 c -4.125,-1.7752 -9.525,-4.12607 -12,-5.22416 -8.21337,-3.64405 -15.45159,-6.88723 -19.5,-8.73723 -2.2,-1.00534 -6.7,-3.03034 -10,-4.5 -3.3,-1.46967 -7.9125,-3.54039 -10.25,-4.60162 -2.3375,-1.06122 -6.1625,-2.79776 -8.5,-3.85898 -5.19071,-2.35658 -13.55192,-6.0929 -20.25,-9.04899 C 227.25663,45.6181 223.38652,43.8593 221.76357,42.96105 220.80853,42.43247 218.49711,42 216.62707,42 c -3.02889,0 -3.44915,0.33439 -3.84962,3.063 -0.38521,2.62454 0.85109,4.79075 8.6365,15.13268 5.73413,7.61707 10.37723,12.76215 12.58605,13.94675 3.09203,1.65828 21.99536,10.76771 49.5,23.85382 29.85572,14.20471 35.5,17.02485 35.5,17.73747 0,1.17623 -13.3352,18.60763 -14.50827,18.9648 -0.55455,0.16885 -6.85455,-3.99845 -14,-9.26066 -7.14545,-5.26221 -14.13004,-10.32595 -15.52132,-11.25276 -4.95825,-3.30298 -16.57196,-11.70391 -22.86025,-16.53626 -6.51233,-5.00452 -6.7804,-4.8296 -2.07063,1.35116 2.27926,2.99113 18.69889,25.12646 33.63921,45.34908 2.37669,3.217 4.32126,6.18217 4.32126,6.58927 0,1.45211 -19.67156,14.81539 -20.45086,13.89267 -0.15377,-0.18206 -2.09496,-4.15602 -4.31376,-8.83102 -2.2188,-4.675 -11.65996,-24.025 -20.98035,-43 L 225.30886,78.5 212.14105,68.75 C 204.89875,63.3875 198.75426,59 198.48662,59 198.21898,59 198,62.76882 198,67.37516 c 0,8.73229 0.0909,9.01706 8.98246,28.12484 1.02373,2.2 3.19419,6.925 4.82324,10.5 1.62905,3.575 9.49578,20.78777 17.48163,38.2506 7.98586,17.46283 14.22565,31.91542 13.8662,32.11685 -1.73938,0.97478 -11.36196,3.73852 -17.29427,4.96716 l -6.64074,1.37537 -4.20124,-17.60499 z m 0.22794,-107.23425 -3.75917,-7.61609 -1.8674,2.47567 c -1.02707,1.36162 -3.47958,3.14928 -5.45003,3.97259 l -3.58264,1.49692 8.95701,4.35422 c 4.92635,2.39482 9.0705,4.03439 9.20921,3.6435 0.1387,-0.3909 -1.43943,-4.13796 -3.50698,-8.32681 z m -23.91097,-28.36924 3.00559,-1.26375 -9.40043,-4.55503 c -5.17024,-2.50527 -9.57805,-4.37741 -9.79514,-4.16032 -0.21709,0.21709 1.51371,4.30098 3.84622,9.07532 l 4.24093,8.68062 2.54862,-3.25654 c 1.40175,-1.7911 3.90114,-3.82523 5.55421,-4.5203 z M 146,172.36697 c -1.925,-0.85511 -5.525,-2.18154 -8,-2.94761 -2.475,-0.76608 -5.82642,-2.27616 -7.44761,-3.35574 l -2.94761,-1.96286 2.76271,-1.05038 c 4.19703,-1.59571 9.56718,-1.26424 15.39324,0.95012 6.73976,2.56165 12.13084,2.53193 18.25037,-0.10062 5.60174,-2.4098 11.70173,-2.22929 18.9889,0.56193 2.97619,1.13998 6.27778,1.57973 9.75,1.29865 l 5.25,-0.42501 0,3.72529 c 0,2.47448 -0.5311,3.92909 -1.58179,4.33227 -3.36696,1.29203 -11.3386,0.52974 -15.99358,-1.52937 -6.0255,-2.66537 -10.64354,-2.66217 -16.42463,0.0114 -5.37459,2.48554 -13.04046,2.69506 -18,0.49197 z m -32.39465,-17.50714 c -3.66209,-2.82709 -6.49051,-5.308 -6.28539,-5.51313 0.20513,-0.20512 2.0026,0.30795 3.99438,1.14017 4.93422,2.06165 11.31232,1.86549 16.54486,-0.50883 5.5556,-2.52092 11.70837,-2.51347 18.1408,0.022 6.47928,2.55389 11.59482,2.53215 17.66709,-0.0751 5.59769,-2.40348 12.17059,-2.22311 19.33291,0.5305 2.98371,1.14712 6.26901,1.58686 9.75,1.30507 l 5.25,-0.42501 0,3.72529 c 0,4.33933 -0.98647,4.93926 -8.12163,4.93926 -3.05766,0 -6.53017,-0.80204 -9.05967,-2.09249 -5.25908,-2.68299 -11.06188,-2.69114 -17.15161,-0.0241 -6.17127,2.70275 -12.52734,2.68985 -18.47195,-0.0375 -5.97345,-2.74055 -11.56504,-2.74197 -16.9053,-0.004 -2.31559,1.18709 -5.06876,2.15835 -6.11816,2.15835 -1.04939,0 -4.90424,-2.31308 -8.56633,-5.14017 z M 109.1991,143.8557 c -2.3655,-1.08667 -5.82987,-2.07358 -7.6986,-2.19313 -1.996539,-0.12773 -4.471852,-1.22648 -6.002432,-2.66439 -2.424657,-2.27784 -2.484131,-2.5352 -0.860271,-3.7226 C 97.21204,133.39325 104.2257,133.72398 110,136 c 6.43243,2.53543 12.5852,2.54288 18.1408,0.022 5.57539,-2.5299 11.00276,-2.53651 17.61993,-0.0215 6.73976,2.56165 12.13084,2.53193 18.25037,-0.10062 5.60174,-2.4098 11.70173,-2.22929 18.9889,0.56193 2.97619,1.13998 6.27778,1.57973 9.75,1.29865 l 5.25,-0.42501 0,3.72529 c 0,2.47448 -0.5311,3.92909 -1.58179,4.33227 -3.36696,1.29203 -11.3386,0.52974 -15.99358,-1.52937 -6.0255,-2.66537 -10.64354,-2.66217 -16.42463,0.0114 -5.8523,2.70646 -13.16237,2.70263 -19,-0.01 -5.69633,-2.64692 -11.57617,-2.63208 -16.8187,0.0425 -5.22028,2.66318 -13.11909,2.64163 -18.9822,-0.0518 z m 0.41741,-13.99227 c -4.76387,-2.51249 -11.180974,-2.72605 -15.604495,-0.51931 -4.362522,2.17631 -4.692035,2.12842 -7.52838,-1.09412 -2.946662,-3.34788 -3.066918,-4.25 -0.56654,-4.25 1.054402,0 4.016709,-0.9 6.582905,-2 2.566196,-1.1 6.411844,-2 8.54589,-2 2.13404,0 6.16339,0.9 8.95411,2 6.39139,2.51925 12.27482,2.51201 17.8592,-0.022 5.5556,-2.52092 11.70837,-2.51347 18.1408,0.022 6.47928,2.55389 11.59482,2.53215 17.66709,-0.0751 5.59769,-2.40348 12.17059,-2.22311 19.33291,0.5305 2.98371,1.14712 6.26901,1.58686 9.75,1.30507 l 5.25,-0.42501 0,3.72529 c 0,4.33933 -0.98647,4.93926 -8.12163,4.93926 -3.05766,0 -6.53017,-0.80204 -9.05967,-2.09249 -5.25908,-2.68299 -11.06188,-2.69114 -17.15161,-0.0241 -6.17127,2.70275 -12.52734,2.68985 -18.47195,-0.0375 -5.97345,-2.74055 -11.56504,-2.74197 -16.9053,-0.004 -5.48522,2.81201 -13.36543,2.8212 -18.67333,0.0218 z m 34.84537,-14.15359 -5.03812,-2.20984 3.22483,-2.7932 c 5.79422,-5.01871 6.75884,-13.37653 2.21112,-19.15802 -1.14824,-1.45976 -1.87123,-2.8706 -1.60663,-3.1352 1.19968,-1.19967 16.00385,17.36598 16.61487,20.83642 0.31162,1.76991 1.53102,0.0326 1.57924,-2.25 0.0832,-3.93802 4.01041,-3.94956 6.04362,-0.0178 0.88346,1.70841 2.90807,3.89787 4.49914,4.86546 l 2.89286,1.75925 -3.19141,0.11002 c -1.75527,0.0605 -5.2164,1.03907 -7.6914,2.17457 -5.90962,2.71125 -13.09494,2.64443 -19.53812,-0.1817 z M 131,111.32306 c -6.04864,-1.89243 -9.00289,-5.67655 -8.99626,-11.5234 0.009,-7.58962 7.65705,-13.42258 14.27842,-10.88919 2.73277,1.04559 2.7544,1.11815 1.21854,4.08818 -0.85999,1.66303 -2.44946,3.57691 -3.53216,4.25307 C 132.88584,97.92787 132,99.04785 132,99.74055 c 0,2.49188 2.56453,1.10134 5.9563,-3.22963 3.91139,-4.99447 5.54242,-4.69992 6.6494,1.20081 0.78595,4.18949 -1.41286,9.49472 -4.81618,11.62036 -2.76835,1.72904 -6.74651,2.63016 -8.78952,1.99097 z m 46.28641,-0.0496 C 174.87149,110.83378 169,105.8123 169,104.18669 c 0,-0.55599 1.9125,-1.33181 4.25,-1.72404 2.3375,-0.39222 5.29243,-1.10702 6.56651,-1.58843 l 2.31651,-0.87529 -3.56651,-4.35246 C 176.60493,93.25262 175,90.81362 175,90.22646 c 0,-0.58715 1.35187,-1.36447 3.00416,-1.72737 4.49313,-0.98686 10.06575,2.11988 12.40768,6.91729 1.73488,3.55385 1.78116,4.28599 0.5,7.90941 -2.06197,5.83174 -7.57739,9.04888 -13.62543,7.94769 z M 162,99.7675 c 0,-1.38072 3.96139,-13.89017 4.65333,-14.6945 0.20203,-0.23485 1.00882,0.44015 1.79286,1.5 1.2442,1.68188 1.21829,2.24501 -0.2037,4.427 -0.89608,1.375 -1.88657,4.07016 -2.20108,5.98923 C 165.48175,100.40418 162,102.7977 162,99.7675 z m 6.78197,-2.73533 c 0.23957,-1.63231 1.10881,-3.52656 1.93163,-4.20944 1.24362,-1.03212 1.97334,-0.6579 4.32482,2.21783 2.48533,3.03944 2.62437,3.54196 1.14517,4.13915 -0.92597,0.37385 -3.06815,0.71135 -4.7604,0.75 -2.85404,0.0652 -3.04527,-0.14458 -2.64122,-2.89754 z M 150.19623,91.06236 C 146.7883,87.25599 144,83.88481 144,83.57085 144,83.25688 148.54814,83 154.10699,83 c 7.66266,0 9.99646,0.30231 9.64999,1.25 -0.25135,0.6875 -1.25806,3.82786 -2.23714,6.97858 -0.97908,3.15072 -2.22189,5.45556 -2.7618,5.12188 -0.5399,-0.33368 -1.29303,-0.10286 -1.67362,0.51294 -0.42343,0.68513 -3.09656,-1.5661 -6.88819,-5.80104 z M 199.46951,16.23469 C 198.90274,15.83061 196.48582,11.225 194.09857,6 c -2.38725,-5.225 -5.37288,-11.75 -6.63474,-14.5 -1.26186,-2.75 -3.63015,-7.925 -5.26286,-11.5 -1.63272,-3.575 -9.54586,-20.88309 -17.58477,-38.462425 C 156.57729,-76.041759 150,-90.708329 150,-91.054803 c 0,-0.722245 15.7536,-5.578278 21,-6.47323 l 3.5,-0.597045 4.34774,18.312539 c 2.39126,10.071896 4.98272,20.562539 5.75881,23.312539 0.77608,2.75 4.07527,15.8 7.33153,29 l 5.92047,24 0.0707,-48.25 L 198,-100 l 4.40063,0 c 6.69394,0 26.12998,3.568433 35.4194,6.50296 19.76153,6.242667 34.63255,14.331408 50.42446,27.427215 22.03342,18.271715 38.82695,44.470195 46.59654,72.692165 l 1.9608,7.12234 -3.47022,-0.78266 c -3.58445,-0.80842 -6.16782,-0.3064 -12.54949,2.43871 C 315.68163,17.59474 308.41654,17.37994 303,14.875 c -5.78109,-2.67353 -10.39913,-2.67673 -16.42463,-0.0114 -5.82265,2.57563 -13.18849,2.76536 -18.01445,0.46402 l -3.50693,-1.67234 3.95234,-1.76952 c 5.28935,-2.36811 7.98517,-6.95712 7.98993,-13.601 0.003,-4.40585 -0.47601,-5.76162 -3.08761,-8.73606 -3.80588,-4.33465 -9.33369,-6.07761 -14.63388,-4.61416 -3.22155,0.88951 -3.98723,0.74473 -5.98448,-1.1316 -2.96671,-2.78707 -2.90045,-4.6205 0.20971,-5.80298 4.33379,-1.6477 2.78271,-3 -3.44098,-3 -6.5853,0 -8.54828,1.28991 -4.31525,2.83564 2.18564,0.79811 0.68056,1.02281 -7.2702,1.08541 l -10.02642,0.079 0.38146,-4 c 0.32873,-3.44704 0.71254,-4 2.77643,-4 1.31723,0 2.39496,-0.45 2.39496,-1 0,-1.45929 -4.31359,-1.2224 -6.47135,0.35539 -1.14881,0.84003 -1.61031,1.98943 -1.21373,3.02289 0.35193,0.91713 -0.26313,4.08101 -1.3668,7.03085 l -2.00669,5.36334 -3.86321,-0.98058 c -3.16712,-0.80391 -4.68859,-0.61548 -8.44404,1.04573 -5.65956,2.5035 -8.62527,6.98597 -8.63044,13.04435 -0.007,8.1412 5.7593,14.09411 13.6966,14.13999 l 3.79966,0.022 -4.3592,1.97804 c -4.331,1.96524 -13.60877,2.6832 -15.67129,1.21273 z M 232,15.06112 c -2.475,-1.0305 -5.33164,-2.14364 -6.3481,-2.47364 -1.6792,-0.54516 -1.57371,-0.9125 1.15423,-4.01946 4.9458,-5.63295 5.33415,-12.57738 1.01072,-18.07372 -1.12467,-1.42979 -1.82837,-2.81612 -1.56377,-3.08072 1.19968,-1.19967 16.00385,17.36598 16.61487,20.83642 0.37761,2.1447 1.56463,0.84305 1.59589,-1.75 0.0529,-4.38719 3.83951,-4.74786 5.99924,-0.5714 0.8682,1.67891 2.72681,3.80494 4.13025,4.72451 l 2.5517,1.67194 -5.32251,2.29731 C 245.2894,17.4422 238.10085,17.60131 232,15.06112 z m -18,-4.73806 c -6.04864,-1.89243 -9.00289,-5.67655 -8.99626,-11.5234 0.009,-7.58962 7.65705,-13.42258 14.27842,-10.88919 2.73277,1.04559 2.7544,1.11815 1.21854,4.08818 -0.85999,1.66303 -2.44946,3.57691 -3.53216,4.25307 C 215.88584,-3.07213 215,-1.95215 215,-1.25945 c 0,2.49188 2.56453,1.10134 5.9563,-3.22963 3.91139,-4.99447 5.54242,-4.69992 6.6494,1.20081 0.78595,4.18949 -1.41286,9.49472 -4.81618,11.62036 -2.76835,1.72904 -6.74651,2.63016 -8.78952,1.99097 z m 46.28641,-0.0496 C 257.87149,9.83378 252,4.8123 252,3.18669 c 0,-0.55599 1.9125,-1.33181 4.25,-1.72404 2.3375,-0.39222 5.29243,-1.10702 6.56651,-1.58843 l 2.31651,-0.87529 -3.56651,-4.35246 C 259.60493,-7.74738 258,-10.18638 258,-10.77354 c 0,-0.58715 1.35187,-1.36447 3.00416,-1.72737 4.49313,-0.98686 10.06575,2.11988 12.40768,6.91729 1.73488,3.55385 1.78116,4.28599 0.5,7.90941 -2.06197,5.83174 -7.57739,9.04888 -13.62543,7.94769 z M 245,-1.2325 c 0,-1.38072 3.96139,-13.89017 4.65333,-14.6945 0.20203,-0.23485 1.00882,0.44015 1.79286,1.5 1.2442,1.68188 1.21829,2.24501 -0.2037,4.427 -0.89608,1.375 -1.88657,4.07016 -2.20108,5.98923 C 248.48175,-0.59582 245,1.7977 245,-1.2325 z m 6.78197,-2.73533 c 0.23957,-1.63231 1.10881,-3.52656 1.93163,-4.20944 1.24362,-1.03212 1.97334,-0.6579 4.32482,2.21783 2.48533,3.03944 2.62437,3.54196 1.14517,4.13915 -0.92597,0.37385 -3.06815,0.71135 -4.7604,0.75 -2.85404,0.0652 -3.04527,-0.14458 -2.64122,-2.89754 z M 233.19623,-9.93764 C 229.7883,-13.74401 227,-17.11519 227,-17.42915 227,-17.74312 231.54814,-18 237.10699,-18 c 7.66266,0 9.99646,0.30231 9.64999,1.25 -0.25135,0.6875 -1.25806,3.82786 -2.23714,6.97858 -0.97908,3.15072 -2.22189,5.45556 -2.7618,5.12188 -0.5399,-0.33368 -1.29303,-0.10286 -1.67362,0.51294 -0.42343,0.68513 -3.09656,-1.5661 -6.88819,-5.80104 z"
       style="fill:#000000;fill-opacity:1" />
  </g>
  <path
     sodipodi:type="arc"
     style="fill:#000000;fill-opacity:1;stroke:none"
     id="path3763"
     sodipodi:cx="-248.33899"
     sodipodi:cy="-141.36864"
     sodipodi:rx="3.3559322"
     sodipodi:ry="0.41949153"
     d="m -244.98306,-141.36864 a 3.3559322,0.41949153 0 1 1 0,-4e-5"
     sodipodi:start="0"
     sodipodi:end="6.2830877"
     sodipodi:open="true"
     transform="translate(0,-156)" />
</svg>
