<?xml version="1.0" encoding="UTF-8" standalone="no"?>
<!-- Created with Inkscape (http://www.inkscape.org/) -->

<svg
   xmlns:dc="http://purl.org/dc/elements/1.1/"
   xmlns:cc="http://creativecommons.org/ns#"
   xmlns:rdf="http://www.w3.org/1999/02/22-rdf-syntax-ns#"
   xmlns:svg="http://www.w3.org/2000/svg"
   xmlns="http://www.w3.org/2000/svg"
   xmlns:sodipodi="http://sodipodi.sourceforge.net/DTD/sodipodi-0.dtd"
   xmlns:inkscape="http://www.inkscape.org/namespaces/inkscape"
   id="svg3066"
   version="1.1"
   inkscape:version="0.48.4 r9939"
   width="396"
   height="396"
   sodipodi:docname="palmabici.svg">
  <metadata
     id="metadata3072">
    <rdf:RDF>
      <cc:Work
         rdf:about="">
        <dc:format>image/svg+xml</dc:format>
        <dc:type
           rdf:resource="http://purl.org/dc/dcmitype/StillImage" />
      </cc:Work>
    </rdf:RDF>
  </metadata>
  <defs
     id="defs3070" />
  <sodipodi:namedview
     pagecolor="#ffffff"
     bordercolor="#666666"
     borderopacity="1"
     objecttolerance="10"
     gridtolerance="10"
     guidetolerance="10"
     inkscape:pageopacity="0"
     inkscape:pageshadow="2"
     inkscape:window-width="1280"
     inkscape:window-height="1000"
     id="namedview3068"
     showgrid="false"
     inkscape:zoom="1.1919192"
     inkscape:cx="319.92191"
     inkscape:cy="196.23284"
     inkscape:window-x="0"
     inkscape:window-y="24"
     inkscape:window-maximized="1"
     inkscape:current-layer="svg3066" />
  <g
     id="g3088"
     transform="translate(-0.83898351,-3.3354354e-7)">
    <path
       style="fill:#fcfcfc"
       d="M 0,198 0,0 l 198,0 198,0 0,198 0,198 -198,0 -198,0 0,-198 z"
       id="path3098"
       inkscape:connector-curvature="0" />
    <path
       style="fill:#f8d70a"
       d="M 181.10712,379.92851 C 134.68442,374.68011 93.609123,353.87032 62.927485,320.0557 39.142857,293.84236 24.435946,263.50663 17.813627,227 c -2.924123,-16.11971 -2.924123,-41.88029 0,-58 C 25.103238,128.81481 41.229699,97.770135 69.499917,69.499917 97.770135,41.229699 128.81481,25.103238 169,17.813627 c 16.11971,-2.924123 41.88029,-2.924123 58,0 40.18519,7.289611 71.22986,23.416072 99.50008,51.68629 28.27022,28.270218 44.39668,59.314893 51.68629,99.500083 2.92413,16.11971 2.92413,41.88029 0,58 -7.28961,40.18519 -23.41607,71.22986 -51.68629,99.50008 -23.45803,23.45804 -47.70556,37.87804 -79.00217,46.98259 -20.04604,5.83163 -47.90187,8.53613 -66.39079,6.44584 z M 223.5216,352.99465 C 314.53507,337.44881 374.01835,245.65027 349.87353,158 330.92255,89.204348 268.16886,40.761922 198,40.761922 127.83114,40.761922 65.077453,89.204348 46.126472,158 c -9.852057,35.76483 -6.028908,74.08783 10.824093,108.5 23.177878,47.32694 70.067605,81.04088 121.549435,87.39463 4.95,0.61092 10.125,1.30158 11.5,1.53481 4.54025,0.77013 22.31811,-0.52114 33.5216,-2.43479 z M 195,340.38898 c -10.2808,-1.1566 -20.26205,-2.69656 -26.42003,-4.07623 l -6.92004,-1.5504 3.28485,-1.38118 c 4.35863,-1.83266 11.43704,-1.7522 15.15864,0.17231 3.60516,1.8643 11.73127,2.95581 15.31298,2.05686 2.00716,-0.50377 2.5836,-1.272 2.5836,-3.4432 l 0,-2.79476 -6.00588,0.43443 c -4.70159,0.34008 -7.14473,-0.0556 -11.25,-1.82209 C 174.2793,325.20295 169.84078,325.17386 164,327.875 c -5.7402,2.65462 -13.14683,2.69509 -18.8592,0.10304 C 142.74323,326.89012 140.24409,326 139.58714,326 c -0.65695,0 -3.59648,-1.19698 -6.53229,-2.65996 -4.89658,-2.44006 -5.18634,-2.77073 -3.50521,-4 2.66209,-1.94657 10.15511,-1.64129 16.21109,0.66046 6.62499,2.51803 12.51585,2.51072 18.09847,-0.0225 5.22963,-2.373 12.12771,-2.55329 16.24422,-0.42456 3.60516,1.8643 11.73127,2.95581 15.31298,2.05686 2.0026,-0.50258 2.5836,-1.2732 2.5836,-3.42675 l 0,-2.77834 -6.33241,0.40322 c -5.09017,0.32412 -7.17771,-0.028 -10.64146,-1.7951 -5.45723,-2.78407 -11.2006,-2.82706 -17.35904,-0.12993 -6.17127,2.70275 -12.52734,2.68985 -18.47195,-0.0375 -5.97345,-2.74055 -11.56504,-2.74197 -16.9053,-0.004 -2.31559,1.18709 -5.06876,2.15835 -6.11816,2.15835 -1.8326,0 -15.61718,-9.88783 -14.85172,-10.6533 0.20513,-0.20512 2.0026,0.30795 3.99438,1.14017 4.93422,2.06165 11.31232,1.86549 16.54486,-0.50883 5.5556,-2.52092 11.70837,-2.51347 18.1408,0.022 2.79072,1.1 6.82007,2 8.95411,2 2.13405,0 5.97969,-0.9 8.54589,-2 5.58401,-2.39359 12.4796,-2.57903 16.60342,-0.44652 3.60516,1.8643 11.73127,2.95581 15.31298,2.05686 2.00716,-0.50377 2.5836,-1.272 2.5836,-3.4432 l 0,-2.79476 -6.00588,0.43443 c -4.70159,0.34008 -7.14473,-0.0556 -11.25,-1.82209 C 174.2793,297.20295 169.84078,297.17386 164,299.875 c -5.8523,2.70646 -13.16237,2.70263 -19,-0.01 -5.69633,-2.64692 -11.57617,-2.63208 -16.8187,0.0425 -5.29961,2.70366 -12.51555,2.71687 -18.58057,0.034 -2.55943,-1.13216 -6.1935,-2.15698 -8.07572,-2.2774 -2.021595,-0.12932 -4.488253,-1.22042 -6.026942,-2.66595 -2.424657,-2.27784 -2.484131,-2.5352 -0.860271,-3.7226 C 97.21204,289.39325 104.2257,289.72398 110,292 c 6.39139,2.51925 12.27482,2.51201 17.8592,-0.022 5.54586,-2.5165 11.24025,-2.50935 17.90153,0.0225 6.62499,2.51803 12.51585,2.51072 18.09847,-0.0225 5.22963,-2.373 12.12771,-2.55329 16.24422,-0.42456 3.60516,1.8643 11.73127,2.95581 15.31298,2.05686 2.0026,-0.50258 2.5836,-1.2732 2.5836,-3.42675 l 0,-2.77834 -6.33241,0.40322 c -5.09017,0.32412 -7.17771,-0.028 -10.64146,-1.7951 -5.45723,-2.78407 -11.2006,-2.82706 -17.35904,-0.12993 -6.17127,2.70275 -12.52734,2.68985 -18.47195,-0.0375 -5.97345,-2.74055 -11.56504,-2.74197 -16.9053,-0.004 -5.5222,2.83097 -12.99883,2.85762 -18.47114,0.0659 -5.00596,-2.55385 -11.362555,-2.78041 -15.806685,-0.56339 -4.362522,2.17631 -4.692035,2.12842 -7.52838,-1.09412 -2.946662,-3.34788 -3.066918,-4.25 -0.56654,-4.25 1.054402,0 4.016709,-0.9 6.582905,-2 2.566196,-1.1 6.411844,-2 8.54589,-2 2.13404,0 6.16339,0.9 8.95411,2 6.39139,2.51925 12.27482,2.51201 17.8592,-0.022 5.5556,-2.52092 11.70837,-2.51347 18.1408,0.022 2.79072,1.1 6.82007,2 8.95411,2 2.13405,0 5.97969,-0.9 8.54589,-2 5.58401,-2.39359 12.4796,-2.57903 16.60342,-0.44652 3.60516,1.8643 11.73127,2.95581 15.31298,2.05686 C 197.419,279.10772 198,278.3371 198,276.18355 l 0,-2.77834 -6.25,0.38088 c -4.78539,0.29161 -7.30452,-0.10222 -10.75,-1.68065 l -4.5,-2.06152 3.79966,-0.022 c 8.36702,-0.0484 13.69018,-5.77594 13.6966,-14.73716 0.003,-4.40585 -0.47601,-5.76162 -3.08761,-8.73606 -3.80588,-4.33465 -9.33369,-6.07761 -14.63388,-4.61416 -3.22155,0.88951 -3.98723,0.74473 -5.98448,-1.1316 -2.96108,-2.78178 -2.89847,-4.56875 0.20971,-5.98493 3.94546,-1.79768 2.94302,-2.81934 -2.75,-2.80274 -6.706,0.0196 -9.11126,1.3295 -5.11315,2.78469 2.32523,0.84632 0.91732,1.05694 -7.49384,1.12105 -9.05274,0.069 -10.28055,-0.12024 -9.75,-1.50284 0.33385,-0.86998 0.60699,-2.66998 0.60699,-4 0,-1.92763 0.51915,-2.41821 2.55902,-2.41821 1.45136,0 2.2915,-0.43284 1.94098,-1 -1.66046,-2.68667 -8.21509,0.69412 -7.08011,3.65183 0.2942,0.76668 -0.37351,3.82191 -1.48379,6.78941 -1.99632,5.33565 -2.05333,5.38553 -5.14263,4.49953 -5.57295,-1.5983 -12.73673,1.27816 -15.83395,6.35778 -4.18121,6.85741 -1.43732,16.46549 5.79435,20.2897 l 4.04321,2.13809 -3.43247,1.63683 c -4.7568,2.26836 -12.14795,2.06256 -17.93998,-0.49953 -6.0255,-2.66537 -10.643544,-2.66217 -16.42463,0.0114 -2.526064,1.16821 -6.590047,2.09071 -9.264698,2.10304 -5.469922,0.0252 -5.8665,-0.4257 -12.733563,-14.47804 C 57.838866,232.56429 52.749195,199.23952 57.902834,173.73452 63.944907,143.83273 77.135985,118.96629 98.051136,98.051136 118.96629,77.135985 143.83273,63.944907 173.73452,57.902834 c 26.36319,-5.32705 59.48665,0.01356 87.81107,14.158086 22.8154,11.393452 44.76108,32.05323 58.47112,55.04502 5.37412,9.01244 11.62663,24.00315 14.8136,35.5164 l 1.97152,7.12234 -3.47022,-0.78266 c -3.58445,-0.80842 -6.16782,-0.3064 -12.54949,2.43871 -5.10049,2.19401 -12.36558,1.97921 -17.78212,-0.52573 -5.78109,-2.67353 -10.39913,-2.67673 -16.42463,-0.0114 -5.82265,2.57563 -13.18849,2.76536 -18.01445,0.46402 l -3.50693,-1.67234 3.95234,-1.76952 c 5.28935,-2.36811 7.98517,-6.95712 7.98993,-13.601 0.003,-4.40585 -0.47601,-5.76162 -3.08761,-8.73606 -3.80588,-4.33465 -9.33369,-6.07761 -14.63388,-4.61416 -3.22155,0.88951 -3.98723,0.74473 -5.98448,-1.1316 -2.96108,-2.78178 -2.89847,-4.56875 0.20971,-5.98493 3.94546,-1.79768 2.94302,-2.81934 -2.75,-2.80274 -6.706,0.0196 -9.11126,1.3295 -5.11315,2.78469 2.32523,0.84632 0.91732,1.05694 -7.49384,1.12105 -9.05274,0.069 -10.28055,-0.12024 -9.75,-1.50284 0.33385,-0.86998 0.60699,-2.66998 0.60699,-4 0,-1.92763 0.51915,-2.41821 2.55902,-2.41821 1.45136,0 2.2915,-0.43284 1.94098,-1 -1.66046,-2.68667 -8.21509,0.69412 -7.08011,3.65183 0.2942,0.76668 -0.37351,3.82191 -1.48379,6.78941 -1.99632,5.33565 -2.05333,5.38553 -5.14263,4.49953 -8.50896,-2.44034 -17.78113,4.54808 -17.78973,13.4081 -0.008,8.26373 5.89834,14.62944 13.61429,14.67309 l 3.88197,0.022 -4.5,2.06152 c -3.44548,1.57843 -5.96461,1.97226 -10.75,1.68065 l -6.25,-0.38088 0,2.77834 c 0,2.15355 0.581,2.92417 2.5836,3.42679 3.58171,0.89895 11.70782,-0.19256 15.31298,-2.05686 4.12382,-2.13251 11.01941,-1.94707 16.60342,0.44652 2.5662,1.1 6.41184,2 8.54589,2 2.13404,0 6.16339,-0.9 8.95411,-2 6.43243,-2.53543 12.5852,-2.54288 18.1408,-0.022 5.58438,2.53397 11.46781,2.54121 17.8592,0.022 2.79072,-1.1 6.82007,-2 8.95411,-2 2.13405,0 5.97969,0.9 8.54589,2 5.9313,2.54245 12.0687,2.54245 18,0 4.65771,-1.99653 12.92643,-2.65176 15.203,-1.20472 0.66165,0.42056 1.50111,2.62894 1.86546,4.9075 l 0.66247,4.14285 -4.26503,-1.46942 c -4.72544,-1.62805 -8.40603,-1.17477 -14.17606,1.74583 -4.91771,2.48918 -11.7935,2.38386 -17.5947,-0.26952 -5.85503,-2.678 -11.69373,-2.65913 -17.01384,0.055 -5.47231,2.79176 -12.94894,2.76511 -18.47114,-0.0659 -5.34026,-2.7377 -10.93185,-2.73628 -16.9053,0.004 -5.94461,2.72733 -12.30068,2.74023 -18.47195,0.0375 -6.15844,-2.69713 -11.90181,-2.65414 -17.35904,0.12993 -3.46375,1.76707 -5.55129,2.11922 -10.64146,1.7951 L 198,186.40521 l 0,2.77834 c 0,2.15355 0.581,2.92417 2.5836,3.42679 3.58171,0.89895 11.70782,-0.19256 15.31298,-2.05686 4.11651,-2.12873 11.01459,-1.94844 16.24422,0.42456 5.58262,2.53318 11.47348,2.54049 18.09847,0.0225 6.66128,-2.53181 12.35567,-2.53896 17.90153,-0.0225 5.58438,2.53397 11.46781,2.54121 17.8592,0.022 6.41688,-2.5293 11.60049,-2.53594 17.1408,-0.022 5.5963,2.53938 12.45219,2.54737 18.8592,0.022 5.77166,-2.27497 9.9344,-2.51478 14.56802,-0.83924 2.96668,1.07276 3.25831,1.58758 3.84702,6.79108 1.08938,9.62884 -2.52996,30.40068 -8.10599,46.52131 -7.13119,20.61666 -18.45626,38.57179 -34.36019,54.47571 -15.96018,15.96019 -33.85189,27.22606 -54.68338,34.43247 -15.84026,5.47976 -38.02256,9.15999 -48.26548,8.00765 z m -50.70338,-68.71625 -5.20338,-2.24696 3.3672,-2.68675 c 5.93507,-4.7357 7.00949,-13.3293 2.39927,-19.19024 -1.14824,-1.45976 -1.87123,-2.8706 -1.60663,-3.1352 0.70065,-0.70064 12.75645,13.13382 14.85135,17.04245 0.97998,1.82843 1.50739,3.59882 1.17201,3.9342 -0.33538,0.33537 0.0455,0.60977 0.84631,0.60977 0.93135,0 1.44189,-0.99103 1.41667,-2.75 -0.0601,-4.18891 3.83311,-4.36407 5.95139,-0.26776 0.88346,1.70841 2.90807,3.89787 4.49914,4.86546 l 2.89286,1.75925 -3.19141,0.11002 c -1.75527,0.0605 -5.2164,1.03907 -7.6914,2.17457 -5.93222,2.72162 -13.07784,2.64226 -19.70338,-0.21881 z M 131,267.36873 c -6.40976,-2.20055 -9,-5.7156 -9,-12.21331 0,-4.99325 4.07148,-9.703 9.2236,-10.66954 7.46124,-1.39974 9.50181,3.04305 3.65667,7.96141 -3.01708,2.53871 -3.75387,4.57917 -1.63027,4.51485 0.6875,-0.0208 2.80534,-2.02387 4.7063,-4.45122 3.91139,-4.99447 5.54242,-4.69992 6.6494,1.20081 0.7833,4.17534 -1.39724,9.45969 -4.81618,11.6716 -2.76529,1.78903 -6.74382,2.68771 -8.78952,1.9854 z m 45.31291,-0.45118 C 173.40017,266.05652 169,261.85575 169,259.93604 c 0,-0.43683 2.5875,-1.32612 5.75,-1.97619 3.1625,-0.65008 6.09305,-1.38697 6.51234,-1.63755 0.41929,-0.25057 -0.81821,-2.38444 -2.75,-4.74194 -4.17052,-5.08957 -4.34609,-6.333 -1.01234,-7.16972 8.64869,-2.17068 16.67278,7.45341 13.18132,15.80965 -2.43496,5.82767 -8.20772,8.51841 -14.36841,6.69726 z M 163.80178,249 c 1.44247,-4.4 2.86892,-8 3.1699,-8 0.30097,0 1.12205,0.92044 1.82462,2.04543 1.08855,1.74305 0.97628,2.42823 -0.75945,4.63486 C 166.90423,249.12018 166,251.76362 166,253.63486 166,256.52434 165.65928,257 163.58956,257 l -2.41044,0 2.62266,-8 z m 4.82836,4.25 c 0.36754,-1.5125 1.22315,-3.56201 1.90136,-4.55447 1.13844,-1.66594 1.47287,-1.51358 4.3566,1.98488 2.78365,3.37706 2.93246,3.86495 1.3677,4.48418 -0.96569,0.38216 -3.22687,0.72647 -5.02485,0.76512 -3.07189,0.066 -3.22875,-0.0956 -2.60081,-2.67971 z m -18.45777,-6.13477 C 146.77756,243.29547 144,239.90692 144,239.58511 144,239.2633 148.54814,239 154.10699,239 c 7.67027,0 9.99337,0.30136 9.63571,1.25 -0.25921,0.6875 -1.22456,3.85343 -2.14522,7.03539 -1.03248,3.56844 -2.08532,5.53114 -2.74751,5.12189 -0.59047,-0.36493 -1.3957,-0.1423 -1.78941,0.49473 -0.45539,0.73684 -2.96152,-1.36856 -6.88819,-5.78678 z M 232,170.89154 c -2.475,-1.1355 -5.89936,-2.11301 -7.60969,-2.17225 l -3.1097,-0.10771 3.1097,-2.07572 c 6.63679,-4.43007 8.27565,-13.43869 3.5962,-19.76798 -4.2242,-5.71354 -1.15689,-3.72774 5.0419,3.26417 6.46865,7.29629 10.32409,13.28211 9.24803,14.35818 -0.33538,0.33537 0.0455,0.60977 0.84631,0.60977 0.93135,0 1.44189,-0.99103 1.41667,-2.75 -0.0601,-4.18891 3.83311,-4.36407 5.95139,-0.26776 0.88346,1.70841 3.04694,3.98462 4.80774,5.05824 1.93409,1.17929 2.55191,1.95352 1.56065,1.95578 -0.90243,0.002 -3.60243,0.89386 -6,1.98178 -5.69407,2.58375 -13.11312,2.54972 -18.8592,-0.0865 z m -18,-4.52281 c -6.40976,-2.20055 -9,-5.7156 -9,-12.21331 0,-4.99325 4.07148,-9.703 9.2236,-10.66954 7.46124,-1.39974 9.50181,3.04305 3.65667,7.96141 -3.01708,2.53871 -3.75387,4.57917 -1.63027,4.51485 0.6875,-0.0208 2.80534,-2.02387 4.7063,-4.45122 3.91139,-4.99447 5.54242,-4.69992 6.6494,1.20081 0.7833,4.17534 -1.39724,9.45969 -4.81618,11.6716 -2.76529,1.78903 -6.74382,2.68771 -8.78952,1.9854 z m 45.31291,-0.45118 C 256.40017,165.05652 252,160.85575 252,158.93604 c 0,-0.43683 2.5875,-1.32612 5.75,-1.97619 3.1625,-0.65008 6.09305,-1.38697 6.51234,-1.63755 0.41929,-0.25057 -0.81821,-2.38444 -2.75,-4.74194 -4.17052,-5.08957 -4.34609,-6.333 -1.01234,-7.16972 8.64869,-2.17068 16.67278,7.45341 13.18132,15.80965 -2.43496,5.82767 -8.20772,8.51841 -14.36841,6.69726 z M 246.80178,148 c 1.44247,-4.4 2.86892,-8 3.1699,-8 0.30097,0 1.12205,0.92044 1.82462,2.04543 1.08855,1.74305 0.97628,2.42823 -0.75945,4.63486 C 249.90423,148.12018 249,150.76362 249,152.63486 249,155.52434 248.65928,156 246.58956,156 l -2.41044,0 2.62266,-8 z m 4.82836,4.25 c 0.36754,-1.5125 1.22315,-3.56201 1.90136,-4.55447 1.13844,-1.66594 1.47287,-1.51358 4.3566,1.98488 2.78365,3.37706 2.93246,3.86495 1.3677,4.48418 -0.96569,0.38216 -3.22687,0.72647 -5.02485,0.76512 -3.07189,0.066 -3.22875,-0.0956 -2.60081,-2.67971 z m -18.45777,-6.13477 C 229.77756,142.29547 227,138.90692 227,138.58511 227,138.2633 231.54814,138 237.10699,138 c 7.67027,0 9.99337,0.30136 9.63571,1.25 -0.25921,0.6875 -1.22456,3.85343 -2.14522,7.03539 -1.03248,3.56844 -2.08532,5.53114 -2.74751,5.12189 -0.59047,-0.36493 -1.3957,-0.1423 -1.78941,0.49473 -0.45539,0.73684 -2.96152,-1.36856 -6.88819,-5.78678 z"
       id="path3096"
       inkscape:connector-curvature="0" />
    <path
       style="fill:#aa700c"
       d="M 182.5,379.89117 C 110.09901,373.14551 47.894019,323.98519 25.101706,255.5 12.633909,218.0374 12.317406,180.12919 24.163652,143.14764 44.362709,80.09033 97.952513,32.037487 162.5,19.104369 c 31.52817,-6.317171 61.87904,-4.359919 93,5.997337 41.7125,13.882189 77.2593,42.880581 100.21642,81.754614 13.67414,23.15485 21.70562,49.0462 24.31768,78.39368 3.29859,37.06088 -8.03991,80.06364 -29.62126,112.34255 C 318.2482,345.70073 269.55861,374.66812 212,379.93989 c -12.80086,1.17242 -16.45832,1.16638 -29.5,-0.0487 z m 32.19878,-25.43599 c 36.33546,-4.75645 65.68523,-18.6754 91.61533,-43.448 28.23037,-26.9702 44.36124,-60.60693 48.79879,-101.75718 1.89464,-17.56938 -0.75284,-37.8109 -7.80645,-59.68481 C 334.9453,111.23209 305.18853,76.500876 268.93481,58.092169 242.858,44.851033 211.28486,38.241322 186.75,40.887105 138.67756,46.071125 100.19848,67.551161 71.898922,105 49.88088,134.1365 37.335029,176.3109 40.887105,209.25 c 4.437547,41.15025 20.568417,74.78698 48.798785,101.75718 25.58948,24.44719 55.18537,38.60118 90.81411,43.43111 13.52911,1.83404 20.29166,1.83738 34.19878,0.0169 z M 182,338.8911 c -3.025,-0.48131 -8.84797,-1.60341 -12.93992,-2.49356 l -7.43993,-1.61847 3.43993,-1.45783 c 4.16409,-1.76473 11.62693,-1.29293 17.93992,1.13415 2.98371,1.14712 6.26901,1.58686 9.75,1.30507 4.95414,-0.40105 5.25,-0.29357 5.25,1.90727 0,2.16171 -0.38393,2.32372 -5.25,2.21537 -2.8875,-0.0643 -7.725,-0.5107 -10.75,-0.992 z m 37,-1.73033 c 0,-0.87725 -4.4678,-19.6098 -9.92844,-41.62789 C 203.61092,273.5148 198.93812,254.6 198.68756,253.5 c -0.25056,-1.1 -0.50776,2.78936 -0.57156,8.64301 -0.0949,8.71073 -0.40318,10.75321 -1.69779,11.25 -3.26391,1.25248 -11.34698,0.54021 -15.55901,-1.37105 l -4.3592,-1.97804 3.79966,-0.022 c 8.36702,-0.0484 13.69018,-5.77594 13.6966,-14.73716 0.003,-4.40585 -0.47601,-5.76162 -3.08761,-8.73606 -3.80588,-4.33465 -9.33369,-6.07761 -14.63388,-4.61416 -3.22155,0.88951 -3.98723,0.74473 -5.98448,-1.1316 -2.96108,-2.78178 -2.89847,-4.56875 0.20971,-5.98493 3.94546,-1.79768 2.94302,-2.81934 -2.75,-2.80274 -6.706,0.0196 -9.11126,1.3295 -5.11315,2.78469 2.32523,0.84632 0.91732,1.05694 -7.49384,1.12105 -9.05274,0.069 -10.28055,-0.12024 -9.75,-1.50284 0.33385,-0.86998 0.60699,-2.66998 0.60699,-4 0,-1.92763 0.51915,-2.41821 2.55902,-2.41821 1.45136,0 2.2915,-0.43284 1.94098,-1 -1.66046,-2.68667 -8.21509,0.69412 -7.08011,3.65183 0.2942,0.76668 -0.37351,3.82191 -1.48379,6.78941 -1.99632,5.33565 -2.05333,5.38553 -5.14263,4.49953 -5.57295,-1.5983 -12.73673,1.27816 -15.83395,6.35778 -4.18121,6.85741 -1.43732,16.46549 5.79435,20.2897 l 4.04321,2.13809 -3.43247,1.63683 c -4.7568,2.26836 -12.14795,2.06256 -17.93998,-0.49953 -6.0255,-2.66537 -10.643544,-2.66217 -16.42463,0.0114 -2.526064,1.16821 -6.590047,2.09071 -9.264698,2.10304 -5.469922,0.0252 -5.8665,-0.4257 -12.733563,-14.47804 C 63.205544,243.54634 56,216.12071 56,202.40063 L 56,198 l 47.75,-0.0789 c 26.2625,-0.0434 46.625,-0.43528 45.25,-0.87079 -1.375,-0.43552 -4.75,-1.29516 -7.5,-1.91032 -4.94867,-1.10698 -23.7892,-5.55438 -47,-11.09457 -6.6,-1.57535 -17.325639,-4.09261 -23.834753,-5.5939 -6.602792,-1.5229 -12.056082,-3.30639 -12.335402,-4.03429 -0.561916,-1.46433 2.723923,-15.1996 4.811884,-20.11435 L 64.5,151.10566 l 18,8.02832 c 9.9,4.41558 21.27967,9.5668 25.28816,11.44717 4.00848,1.88037 7.49478,3.41885 7.74733,3.41885 0.40895,0 5.21107,2.13122 17.96451,7.97282 2.2,1.00769 6.25,2.8177 9,4.02225 2.75,1.20454 7.25,3.22101 10,4.48103 16.39463,7.51182 16.4324,7.5239 23.52964,7.5239 5.47849,0 6.97036,-0.31587 6.97036,-1.47584 0,-0.81171 -4.35654,-7.3426 -9.68119,-14.51309 -8.36009,-11.25819 -10.37289,-13.3649 -14.75,-15.43825 C 155.78096,165.25228 147.2,161.15621 139.5,157.47044 131.8,153.78468 121,148.61844 115.5,145.9899 110,143.36137 98.8625,138.03075 90.75,134.14408 82.6375,130.25741 76,126.65729 76,126.1438 c 0,-0.93745 10.088045,-15.49689 12.443525,-17.95896 1.028744,-1.0753 6.555339,2.52681 30.301775,19.75 C 134.71925,139.52068 148.04387,149 148.35557,149 c 0.3117,0 -2.71952,-4.3875 -6.73605,-9.75 -4.01652,-5.3625 -13.29066,-17.85 -20.6092,-27.75 -7.31853,-9.9 -13.76526,-18.587036 -14.32607,-19.304525 -1.28837,-1.648335 0.30583,-3.231015 10.71631,-10.638865 l 7.90055,-5.621847 15.64309,31.782617 c 8.6037,17.48044 18.28721,37.27421 21.51892,43.98614 l 5.87582,12.20353 13.36092,9.68275 c 7.34851,5.32551 13.22578,9.8179 13.0606,9.98308 -0.16518,0.16518 -4.79136,-1.86438 -10.2804,-4.51014 -5.48903,-2.64575 -10.1182,-4.69158 -10.28703,-4.54629 -0.16883,0.14528 1.84062,4.61804 4.46544,9.93946 4.26174,8.63998 4.90956,9.48102 6.05406,7.8597 2.94095,-4.16619 5.69616,-6.35777 9.38067,-7.46168 3.27655,-0.98168 3.9068,-1.60188 3.9068,-3.84449 0,-2.61306 0.11961,-2.6643 5.25,-2.24898 3.48099,0.28179 6.76629,-0.15795 9.75,-1.30507 7.16232,-2.75361 13.73522,-2.93398 19.33291,-0.5305 6.07227,2.60726 11.18781,2.629 17.66709,0.0751 6.43243,-2.53543 12.5852,-2.54288 18.1408,-0.022 5.58438,2.53397 11.46781,2.54121 17.8592,0.022 6.4292,-2.53415 11.58806,-2.53415 17.5,0 5.9313,2.54245 12.0687,2.54245 18,0 4.65771,-1.99653 12.92643,-2.65176 15.203,-1.20472 0.66165,0.42056 1.50111,2.62894 1.86546,4.9075 l 0.66247,4.14285 -4.26503,-1.46942 c -4.72544,-1.62805 -8.40603,-1.17477 -14.17606,1.74583 -4.91771,2.48918 -11.7935,2.38386 -17.5947,-0.26952 -5.85503,-2.678 -11.69373,-2.65913 -17.01384,0.055 -5.47231,2.79176 -12.94894,2.76511 -18.47114,-0.0659 -5.34026,-2.7377 -10.93185,-2.73628 -16.9053,0.004 -5.94461,2.72733 -12.30068,2.74023 -18.47195,0.0375 -6.15844,-2.69713 -11.90181,-2.65414 -17.35904,0.12993 -3.46375,1.76707 -5.55129,2.11922 -10.64146,1.7951 L 198,186.40521 l 0,2.77834 c 0,2.15355 0.581,2.92417 2.5836,3.42679 3.58171,0.89895 11.70782,-0.19256 15.31298,-2.05686 4.11651,-2.12873 11.01459,-1.94844 16.24422,0.42456 5.58262,2.53318 11.47348,2.54049 18.09847,0.0225 6.66128,-2.53181 12.35567,-2.53896 17.90153,-0.0225 5.58438,2.53397 11.46781,2.54121 17.8592,0.022 6.41688,-2.5293 11.60049,-2.53594 17.1408,-0.022 5.5963,2.53938 12.45219,2.54737 18.8592,0.022 5.80974,-2.28999 9.93501,-2.51456 14.679,-0.79911 2.84757,1.02969 3.321,1.67119 3.321,4.5 l 0,3.29911 -53.25,0.0857 -53.25,0.0857 7.5,1.86208 c 4.125,1.02414 9.525,2.33074 12,2.90357 4.56997,1.05769 24.72783,5.82931 46.5,11.00714 6.6,1.5696 16.275,3.83526 21.5,5.03478 17.17092,3.94202 16.97774,3.85421 16.31029,7.41332 -0.8779,4.68132 -5.39295,18.99029 -6.29304,19.94371 -0.69104,0.73199 -23.0252,-8.69728 -44.80541,-18.91642 C 282.20336,225.5388 278.71706,224 278.46451,224 c -0.40895,0 -5.21107,-2.13122 -17.96451,-7.97282 -2.2,-1.00769 -6.25,-2.8177 -9,-4.02225 -2.75,-1.20454 -7.25,-3.22208 -10,-4.48341 C 223.48885,199.26042 220.17983,198 216.50288,198 c -2.83878,0 -3.33194,0.39529 -3.87391,3.10513 -0.55251,2.76255 0.38828,4.47255 8.52716,15.49936 7.88545,10.68346 9.85183,12.72753 14.24602,14.80895 2.80382,1.3281 11.39785,5.43035 19.09785,9.11612 7.7,3.68576 18.5,8.852 24,11.48054 30.61229,14.63006 40.02813,19.18469 40.37237,19.52893 0.48042,0.48042 -10.54222,15.85221 -12.89198,17.97872 -1.60882,1.45596 -3.88642,0.0138 -30.75337,-19.47267 C 259.2683,258.47029 245.96563,249 245.66554,249 c -0.30009,0 2.9149,4.63471 7.14442,10.29936 18.75907,25.12424 34.71206,46.81999 34.96404,47.55038 0.27053,0.78421 -13.18389,10.8127 -17.50086,13.04457 -2.13445,1.10351 -2.4939,0.60052 -8.66212,-12.12151 -3.5394,-7.30004 -13.11501,-26.87886 -21.27914,-43.50849 L 225.48802,234.02862 211.99401,224.1762 198.5,214.32378 l -0.28806,8.8783 -0.28806,8.8783 22.64928,50.01526 c 12.4571,27.50839 22.48673,50.15463 22.28806,50.32499 -0.88068,0.75515 -10.95317,3.66124 -17.11122,4.93688 -6.09647,1.26289 -6.75,1.24385 -6.75,-0.19674 z m -3.12171,-122.55833 -4.21998,-8.63263 -2.96171,3.02931 c -1.62894,1.66612 -4.02707,3.2967 -5.32916,3.62351 -1.30209,0.3268 -2.36744,0.99416 -2.36744,1.48302 0,0.82929 18.14407,9.86236 18.79913,9.35919 0.16452,-0.12637 -1.59986,-4.11445 -3.92084,-8.8624 z M 145.1408,327.97804 C 142.74323,326.89012 140.24409,326 139.58714,326 c -0.65695,0 -3.59648,-1.19698 -6.53229,-2.65996 -4.89658,-2.44006 -5.18634,-2.77073 -3.50521,-4 2.66209,-1.94657 10.15511,-1.64129 16.21109,0.66046 6.73976,2.56165 12.13084,2.53193 18.25037,-0.10062 5.60174,-2.4098 11.70173,-2.22929 18.9889,0.56193 2.97619,1.13998 6.27778,1.57973 9.75,1.29865 l 5.25,-0.42501 0,3.72529 c 0,2.47448 -0.5311,3.92909 -1.58179,4.33227 -3.36696,1.29203 -11.3386,0.52974 -15.99358,-1.52937 -6.0255,-2.66537 -10.64354,-2.66217 -16.42463,0.0114 -5.7402,2.65462 -13.14683,2.69509 -18.8592,0.10304 z m -31.53545,-17.11821 c -3.66209,-2.82709 -6.49051,-5.308 -6.28539,-5.51313 0.20513,-0.20512 2.0026,0.30795 3.99438,1.14017 4.93422,2.06165 11.31232,1.86549 16.54486,-0.50883 5.5556,-2.52092 11.70837,-2.51347 18.1408,0.022 6.47928,2.55389 11.59482,2.53215 17.66709,-0.0751 5.59769,-2.40348 12.17059,-2.22311 19.33291,0.5305 2.98371,1.14712 6.26901,1.58686 9.75,1.30507 l 5.25,-0.42501 0,3.72529 c 0,4.33933 -0.98647,4.93926 -8.12163,4.93926 -3.05766,0 -6.53017,-0.80204 -9.05967,-2.09249 -5.25908,-2.68299 -11.06188,-2.69114 -17.15161,-0.0241 -6.17127,2.70275 -12.52734,2.68985 -18.47195,-0.0375 -5.97345,-2.74055 -11.56504,-2.74197 -16.9053,-0.004 -2.31559,1.18709 -5.06876,2.15835 -6.11816,2.15835 -1.04939,0 -4.90424,-2.31308 -8.56633,-5.14017 z M 109.1991,299.8557 c -2.3655,-1.08667 -5.82987,-2.07358 -7.6986,-2.19313 -1.996539,-0.12773 -4.471852,-1.22648 -6.002432,-2.66439 -2.424657,-2.27784 -2.484131,-2.5352 -0.860271,-3.7226 C 97.21204,289.39325 104.2257,289.72398 110,292 c 6.39139,2.51925 12.27482,2.51201 17.8592,-0.022 5.54586,-2.5165 11.24025,-2.50935 17.90153,0.0225 6.73976,2.56165 12.13084,2.53193 18.25037,-0.10062 5.60174,-2.4098 11.70173,-2.22929 18.9889,0.56193 2.97619,1.13998 6.27778,1.57973 9.75,1.29865 l 5.25,-0.42501 0,3.72529 c 0,2.47448 -0.5311,3.92909 -1.58179,4.33227 -3.36696,1.29203 -11.3386,0.52974 -15.99358,-1.52937 -6.0255,-2.66537 -10.64354,-2.66217 -16.42463,0.0114 -5.8523,2.70646 -13.16237,2.70263 -19,-0.01 -5.69633,-2.64692 -11.57617,-2.63208 -16.8187,0.0425 -5.22028,2.66318 -13.11909,2.64163 -18.9822,-0.0518 z m 0.41741,-13.99227 c -4.76387,-2.51249 -11.180974,-2.72605 -15.604495,-0.51931 -4.362522,2.17631 -4.692035,2.12842 -7.52838,-1.09412 -2.946662,-3.34788 -3.066918,-4.25 -0.56654,-4.25 1.054402,0 4.016709,-0.9 6.582905,-2 2.566196,-1.1 6.411844,-2 8.54589,-2 2.13404,0 6.16339,0.9 8.95411,2 6.39139,2.51925 12.27482,2.51201 17.8592,-0.022 5.5556,-2.52092 11.70837,-2.51347 18.1408,0.022 6.47928,2.55389 11.59482,2.53215 17.66709,-0.0751 5.59769,-2.40348 12.17059,-2.22311 19.33291,0.5305 2.98371,1.14712 6.26901,1.58686 9.75,1.30507 l 5.25,-0.42501 0,3.72529 c 0,4.33933 -0.98647,4.93926 -8.12163,4.93926 -3.05766,0 -6.53017,-0.80204 -9.05967,-2.09249 -5.25908,-2.68299 -11.06188,-2.69114 -17.15161,-0.0241 -6.17127,2.70275 -12.52734,2.68985 -18.47195,-0.0375 -5.97345,-2.74055 -11.56504,-2.74197 -16.9053,-0.004 -5.48522,2.81201 -13.36543,2.8212 -18.67333,0.0218 z m 34.68011,-14.1907 -5.20338,-2.24696 3.3672,-2.68675 c 5.93507,-4.7357 7.00949,-13.3293 2.39927,-19.19024 -1.14824,-1.45976 -1.87123,-2.8706 -1.60663,-3.1352 0.70065,-0.70064 12.75645,13.13382 14.85135,17.04245 0.97998,1.82843 1.50739,3.59882 1.17201,3.9342 -0.33538,0.33537 0.0455,0.60977 0.84631,0.60977 0.93135,0 1.44189,-0.99103 1.41667,-2.75 -0.0601,-4.18891 3.83311,-4.36407 5.95139,-0.26776 0.88346,1.70841 2.90807,3.89787 4.49914,4.86546 l 2.89286,1.75925 -3.19141,0.11002 c -1.75527,0.0605 -5.2164,1.03907 -7.6914,2.17457 -5.93222,2.72162 -13.07784,2.64226 -19.70338,-0.21881 z M 131,267.36873 c -6.40976,-2.20055 -9,-5.7156 -9,-12.21331 0,-4.99325 4.07148,-9.703 9.2236,-10.66954 7.46124,-1.39974 9.50181,3.04305 3.65667,7.96141 -3.01708,2.53871 -3.75387,4.57917 -1.63027,4.51485 0.6875,-0.0208 2.80534,-2.02387 4.7063,-4.45122 3.91139,-4.99447 5.54242,-4.69992 6.6494,1.20081 0.7833,4.17534 -1.39724,9.45969 -4.81618,11.6716 -2.76529,1.78903 -6.74382,2.68771 -8.78952,1.9854 z m 45.31291,-0.45118 C 173.40017,266.05652 169,261.85575 169,259.93604 c 0,-0.43683 2.5875,-1.32612 5.75,-1.97619 3.1625,-0.65008 6.09305,-1.38697 6.51234,-1.63755 0.41929,-0.25057 -0.81821,-2.38444 -2.75,-4.74194 -4.17052,-5.08957 -4.34609,-6.333 -1.01234,-7.16972 8.64869,-2.17068 16.67278,7.45341 13.18132,15.80965 -2.43496,5.82767 -8.20772,8.51841 -14.36841,6.69726 z M 163.80178,249 c 1.44247,-4.4 2.86892,-8 3.1699,-8 0.30097,0 1.12205,0.92044 1.82462,2.04543 1.08855,1.74305 0.97628,2.42823 -0.75945,4.63486 C 166.90423,249.12018 166,251.76362 166,253.63486 166,256.52434 165.65928,257 163.58956,257 l -2.41044,0 2.62266,-8 z m 4.82836,4.25 c 0.36754,-1.5125 1.22315,-3.56201 1.90136,-4.55447 1.13844,-1.66594 1.47287,-1.51358 4.3566,1.98488 2.78365,3.37706 2.93246,3.86495 1.3677,4.48418 -0.96569,0.38216 -3.22687,0.72647 -5.02485,0.76512 -3.07189,0.066 -3.22875,-0.0956 -2.60081,-2.67971 z m -18.45777,-6.13477 C 146.77756,243.29547 144,239.90692 144,239.58511 144,239.2633 148.54814,239 154.10699,239 c 7.67027,0 9.99337,0.30136 9.63571,1.25 -0.25921,0.6875 -1.22456,3.85343 -2.14522,7.03539 -1.03248,3.56844 -2.08532,5.53114 -2.74751,5.12189 -0.59047,-0.36493 -1.3957,-0.1423 -1.78941,0.49473 -0.45539,0.73684 -2.96152,-1.36856 -6.88819,-5.78678 z m 49.27496,-74.88054 C 198.86837,171.83061 197.43195,169.25 196.2553,166.5 195.07865,163.75 184.21653,139.675 172.11725,113 l -21.99868,-48.5 8.26239,-2.68447 c 11.06784,-3.595968 15.93065,-3.98606 16.39918,-1.31553 0.49582,2.826173 19.97249,81.94622 21.66261,88 1.24638,4.46439 1.40456,-0.22219 1.47658,-43.75 L 198,56 l 4.40063,0 c 7.64224,0 27.49217,3.882861 38.49777,7.530579 26.5375,8.795644 48.9721,24.241939 66.45007,45.751081 13.08519,16.1032 21.92184,33.25464 27.48184,53.34068 l 1.97152,7.12234 -3.47022,-0.78266 c -3.58445,-0.80842 -6.16782,-0.3064 -12.54949,2.43871 -5.10049,2.19401 -12.36558,1.97921 -17.78212,-0.52573 -5.78109,-2.67353 -10.39913,-2.67673 -16.42463,-0.0114 -5.82265,2.57563 -13.18849,2.76536 -18.01445,0.46402 l -3.50693,-1.67234 3.95234,-1.76952 c 5.28935,-2.36811 7.98517,-6.95712 7.98993,-13.601 0.003,-4.40585 -0.47601,-5.76162 -3.08761,-8.73606 -3.80588,-4.33465 -9.33369,-6.07761 -14.63388,-4.61416 -3.22155,0.88951 -3.98723,0.74473 -5.98448,-1.1316 -2.96108,-2.78178 -2.89847,-4.56875 0.20971,-5.98493 3.94546,-1.79768 2.94302,-2.81934 -2.75,-2.80274 -6.706,0.0196 -9.11126,1.3295 -5.11315,2.78469 2.32523,0.84632 0.91732,1.05694 -7.49384,1.12105 -9.05274,0.069 -10.28055,-0.12024 -9.75,-1.50284 0.33385,-0.86998 0.60699,-2.66998 0.60699,-4 0,-1.92763 0.51915,-2.41821 2.55902,-2.41821 1.45136,0 2.2915,-0.43284 1.94098,-1 -1.66046,-2.68667 -8.21509,0.69412 -7.08011,3.65183 0.2942,0.76668 -0.37351,3.82191 -1.48379,6.78941 -1.99632,5.33565 -2.05333,5.38553 -5.14263,4.49953 -8.50896,-2.44034 -17.78113,4.54808 -17.78973,13.4081 -0.008,8.26373 5.89834,14.62944 13.61429,14.67309 l 3.88197,0.022 -4.3592,1.97804 c -4.33311,1.9662 -13.58905,2.68146 -15.69347,1.21273 z M 232,170.89154 c -2.475,-1.1355 -5.89936,-2.11301 -7.60969,-2.17225 l -3.1097,-0.10771 3.1097,-2.07572 c 6.63679,-4.43007 8.27565,-13.43869 3.5962,-19.76798 -4.2242,-5.71354 -1.15689,-3.72774 5.0419,3.26417 6.46865,7.29629 10.32409,13.28211 9.24803,14.35818 -0.33538,0.33537 0.0455,0.60977 0.84631,0.60977 0.93135,0 1.44189,-0.99103 1.41667,-2.75 -0.0601,-4.18891 3.83311,-4.36407 5.95139,-0.26776 0.88346,1.70841 3.04694,3.98462 4.80774,5.05824 1.93409,1.17929 2.55191,1.95352 1.56065,1.95578 -0.90243,0.002 -3.60243,0.89386 -6,1.98178 -5.69407,2.58375 -13.11312,2.54972 -18.8592,-0.0865 z m -18,-4.52281 c -6.40976,-2.20055 -9,-5.7156 -9,-12.21331 0,-4.99325 4.07148,-9.703 9.2236,-10.66954 7.46124,-1.39974 9.50181,3.04305 3.65667,7.96141 -3.01708,2.53871 -3.75387,4.57917 -1.63027,4.51485 0.6875,-0.0208 2.80534,-2.02387 4.7063,-4.45122 3.91139,-4.99447 5.54242,-4.69992 6.6494,1.20081 0.7833,4.17534 -1.39724,9.45969 -4.81618,11.6716 -2.76529,1.78903 -6.74382,2.68771 -8.78952,1.9854 z m 45.31291,-0.45118 C 256.40017,165.05652 252,160.85575 252,158.93604 c 0,-0.43683 2.5875,-1.32612 5.75,-1.97619 3.1625,-0.65008 6.09305,-1.38697 6.51234,-1.63755 0.41929,-0.25057 -0.81821,-2.38444 -2.75,-4.74194 -4.17052,-5.08957 -4.34609,-6.333 -1.01234,-7.16972 8.64869,-2.17068 16.67278,7.45341 13.18132,15.80965 -2.43496,5.82767 -8.20772,8.51841 -14.36841,6.69726 z M 246.80178,148 c 1.44247,-4.4 2.86892,-8 3.1699,-8 0.30097,0 1.12205,0.92044 1.82462,2.04543 1.08855,1.74305 0.97628,2.42823 -0.75945,4.63486 C 249.90423,148.12018 249,150.76362 249,152.63486 249,155.52434 248.65928,156 246.58956,156 l -2.41044,0 2.62266,-8 z m 4.82836,4.25 c 0.36754,-1.5125 1.22315,-3.56201 1.90136,-4.55447 1.13844,-1.66594 1.47287,-1.51358 4.3566,1.98488 2.78365,3.37706 2.93246,3.86495 1.3677,4.48418 -0.96569,0.38216 -3.22687,0.72647 -5.02485,0.76512 -3.07189,0.066 -3.22875,-0.0956 -2.60081,-2.67971 z m -18.45777,-6.13477 C 229.77756,142.29547 227,138.90692 227,138.58511 227,138.2633 231.54814,138 237.10699,138 c 7.67027,0 9.99337,0.30136 9.63571,1.25 -0.25921,0.6875 -1.22456,3.85343 -2.14522,7.03539 -1.03248,3.56844 -2.08532,5.53114 -2.74751,5.12189 -0.59047,-0.36493 -1.3957,-0.1423 -1.78941,0.49473 -0.45539,0.73684 -2.96152,-1.36856 -6.88819,-5.78678 z"
       id="path3094"
       inkscape:connector-curvature="0" />
    <path
       style="fill:#d91218"
       d="m 176.68982,337.93526 c -13.26266,-2.33502 -15.03803,-3.13417 -10.83264,-4.8761 3.70377,-1.53415 11.04343,-0.93361 17.14282,1.40265 2.97619,1.13998 6.27778,1.57973 9.75,1.29865 4.95414,-0.40105 5.25,-0.29357 5.25,1.90727 0,2.15712 -0.39427,2.32621 -5.25,2.25151 -2.8875,-0.0444 -10.11458,-0.93721 -16.06018,-1.98398 z m 43.08731,-1.09307 c -0.27918,-0.7382 -2.60416,-9.89219 -5.16663,-20.34219 -2.56246,-10.45 -5.3266,-21.475 -6.14252,-24.5 -0.81593,-3.025 -3.46784,-13.6 -5.89315,-23.5 l -4.40966,-18 -0.0826,11.14301 c -0.0936,12.63453 0.0776,12.38395 -8.41438,12.31507 C 186.52992,273.93263 183.12531,273.16356 181,272 l -3.5,-1.91617 3.29966,-0.0419 c 7.89106,-0.10024 13.19034,-6.02617 13.1966,-14.75712 0.003,-4.40585 -0.47601,-5.76162 -3.08761,-8.73606 -3.80588,-4.33465 -9.33369,-6.07761 -14.63388,-4.61416 -3.22155,0.88951 -3.98723,0.74473 -5.98448,-1.1316 -2.96671,-2.78707 -2.90045,-4.6205 0.20971,-5.80298 4.33379,-1.6477 2.78271,-3 -3.44098,-3 -6.5853,0 -8.54828,1.28991 -4.31525,2.83564 2.18564,0.79811 0.68056,1.02281 -7.2702,1.08541 L 145.44715,236 l 0.38146,-4 c 0.32873,-3.44704 0.71254,-4 2.77643,-4 1.31723,0 2.39496,-0.45 2.39496,-1 0,-1.45929 -4.31359,-1.2224 -6.47135,0.35539 -1.14881,0.84003 -1.61031,1.98943 -1.21373,3.02289 0.35193,0.91713 -0.26313,4.08101 -1.3668,7.03085 l -2.00669,5.36334 -3.86321,-0.98058 c -5.16267,-1.31043 -12.16619,1.66363 -15.04781,6.39008 -4.44419,7.2894 -1.54924,17.34039 5.96326,20.70383 l 3.95234,1.76952 -3.50693,1.67234 c -4.87918,2.32672 -12.59679,2.14269 -17.62038,-0.42015 -5.24253,-2.67454 -11.12237,-2.68938 -16.8187,-0.0425 -2.501625,1.16244 -6.577242,2.10078 -9.177596,2.11299 -4.635314,0.0218 -4.709489,-0.0305 -8.2057,-5.78593 C 71.247222,260.99917 65.948472,248.727 62.50296,237.82003 59.568433,228.53061 56,209.09457 56,202.40063 L 56,198 l 48.75,-0.10335 c 32.81254,-0.0696 47.44231,-0.41066 44.75,-1.04335 -2.2,-0.51699 -5.575,-1.35498 -7.5,-1.86218 -3.29731,-0.86879 -16.39457,-3.99393 -31,-7.39693 -3.575,-0.83295 -11.45,-2.67646 -17.5,-4.09667 -6.05,-1.42021 -14.825,-3.47364 -19.5,-4.56317 -4.675,-1.08953 -10.222244,-2.44895 -12.327208,-3.02093 l -3.827208,-1.03997 0.6905,-4.18672 c 0.379775,-2.3027 1.769465,-7.62791 3.088199,-11.8338 l 2.397699,-7.64707 12.239009,5.48165 C 82.992446,159.70242 90.3,162.98084 92.5,163.97289 c 5.181461,2.33648 14.92092,6.72184 20,9.00535 2.2,0.98911 6.7,3.01411 10,4.5 3.3,1.4859 8.025,3.5891 10.5,4.67377 2.475,1.08467 5.85,2.58012 7.5,3.32322 28.93258,13.03014 27.80629,12.6415 35.69793,12.31824 6.96329,-0.28522 7.18628,-0.37484 7.93582,-3.18915 1.0806,-4.05736 5.59628,-8.44315 10.07472,-9.78493 3.1602,-0.94682 3.79153,-1.58121 3.79153,-3.80995 0,-2.61306 0.11961,-2.6643 5.25,-2.24898 3.47222,0.28108 6.77381,-0.15867 9.75,-1.29865 7.28717,-2.79122 13.38716,-2.97173 18.9889,-0.56193 6.11953,2.63255 11.51061,2.66227 18.25037,0.10062 6.66128,-2.53181 12.35567,-2.53896 17.90153,-0.0225 5.58438,2.53397 11.46781,2.54121 17.8592,0.022 6.4292,-2.53415 11.58806,-2.53415 17.5,0 5.89574,2.52721 12.75943,2.519 18.3592,-0.022 4.35216,-1.97484 12.56776,-2.62946 14.8438,-1.18276 0.66165,0.42056 1.50111,2.62894 1.86546,4.9075 l 0.66247,4.14285 -4.26503,-1.46942 c -4.72544,-1.62805 -8.40603,-1.17477 -14.17606,1.74583 -4.91771,2.48918 -11.7935,2.38386 -17.5947,-0.26952 -5.85503,-2.678 -11.69373,-2.65913 -17.01384,0.055 -5.47231,2.79176 -12.94894,2.76511 -18.47114,-0.0659 -5.34026,-2.7377 -10.93185,-2.73628 -16.9053,0.004 -5.94461,2.72733 -12.30068,2.74023 -18.47195,0.0375 -6.15844,-2.69713 -11.90181,-2.65414 -17.35904,0.12993 -3.46375,1.76707 -5.55129,2.11922 -10.64146,1.7951 L 198,186.40521 l 0,2.77834 c 0,2.15355 0.581,2.92417 2.5836,3.42679 3.58171,0.89895 11.70782,-0.19256 15.31298,-2.05686 4.11651,-2.12873 11.01459,-1.94844 16.24422,0.42456 5.58262,2.53318 11.47348,2.54049 18.09847,0.0225 6.61717,-2.51505 12.04454,-2.50844 17.61993,0.0215 5.5556,2.52092 11.70837,2.51347 18.1408,-0.022 6.41688,-2.5293 11.60049,-2.53594 17.1408,-0.022 5.5963,2.53938 12.45219,2.54737 18.8592,0.022 5.80974,-2.28999 9.93501,-2.51456 14.679,-0.79911 2.84757,1.02969 3.321,1.67119 3.321,4.5 l 0,3.29911 -54.25,0.0765 -54.25,0.0765 8.5,1.95561 c 4.675,1.07559 10.075,2.37566 12,2.88904 3.26704,0.87129 15.8503,3.87834 31,7.40815 14.87889,3.4667 41.51139,9.73746 50.19025,11.81754 4.52934,1.08556 4.67048,1.22966 4.11375,4.20039 -0.82595,4.40729 -5.36786,18.9379 -6.19557,19.82107 -0.60023,0.64044 -6.33241,-1.72654 -29.85843,-12.32939 -2.3375,-1.05348 -6.1625,-2.77495 -8.5,-3.82548 -2.3375,-1.05053 -6.95,-3.1258 -10.25,-4.6117 -12.07726,-5.43805 -14.11236,-6.34785 -20,-8.9411 -5.84198,-2.57313 -7.09566,-3.13338 -16.5,-7.37353 C 226.26133,200.26399 220.36313,198 216.91636,198 c -3.60409,0 -3.86504,0.20954 -4.50428,3.61694 -0.92431,4.92699 -5.7005,10.11436 -10.50343,11.40766 L 198,214.07709 l 0,9.64978 0,9.64977 6.14125,13.56168 c 6.40584,14.14597 7.79627,17.18429 17.64691,38.56168 3.2947,7.15 7.21073,15.7 8.70229,19 1.49155,3.3 4.94381,10.88508 7.67167,16.85573 2.72787,5.97064 4.81984,10.98574 4.64882,11.14465 -0.79671,0.74032 -13.94159,4.39667 -17.98773,5.00342 -3.36845,0.50513 -4.66934,0.33457 -5.04608,-0.66161 z M 146,328.36697 c -1.925,-0.85511 -5.525,-2.18154 -8,-2.94761 -2.475,-0.76608 -5.82642,-2.27616 -7.44761,-3.35574 l -2.94761,-1.96286 2.76271,-1.05038 c 4.19703,-1.59571 9.56718,-1.26424 15.39324,0.95012 6.73976,2.56165 12.13084,2.53193 18.25037,-0.10062 5.60174,-2.4098 11.70173,-2.22929 18.9889,0.56193 2.97619,1.13998 6.27778,1.57973 9.75,1.29865 l 5.25,-0.42501 0,3.72529 c 0,4.33933 -0.98647,4.93926 -8.12163,4.93926 -3.05766,0 -6.53017,-0.80204 -9.05967,-2.09249 -5.24253,-2.67454 -11.12237,-2.68938 -16.8187,-0.0425 -5.37227,2.49635 -13.02954,2.70986 -18,0.50192 z m 112.23822,-28.15982 c -5.52938,-11.38893 -15.12203,-30.97224 -21.317,-43.51845 l -11.26359,-22.81131 -10.07882,-7.38808 c -15.06526,-11.04331 -14.60765,-10.66045 -11.39128,-9.53049 1.47814,0.5193 4.85314,2.03272 7.5,3.36317 9.93571,4.9942 9.97324,4.95371 4.85463,-5.23803 C 214.03294,210.08778 212.18341,206 212.43211,206 c 0.2487,0 4.32103,5.20254 9.04961,11.5612 l 8.59743,11.56121 15.21043,7.29174 c 8.36573,4.01045 19.26042,9.22059 24.21042,11.57807 4.95,2.35749 17.24621,8.27366 27.3249,13.14706 10.0787,4.8734 18.6287,8.86761 19,8.87603 0.37131,0.008 1.31135,0.41806 2.08899,0.91031 1.12698,0.71338 0.23595,2.531 -4.39106,8.95735 -8.77904,12.19302 -7.76408,11.85717 -16.52283,5.46749 -4.125,-3.00927 -14.17315,-10.28169 -22.32922,-16.16093 -8.15606,-5.87924 -18.05606,-13.03569 -22,-15.90322 -3.94393,-2.86754 -7.52949,-5.23004 -7.9679,-5.25 -0.43842,-0.02 0.50597,1.65119 2.09865,3.71369 6.38743,8.27166 39.37175,52.96263 40.48913,54.85936 0.38122,0.64712 -2.56403,3.40609 -7.06857,6.62151 -12.9497,9.24371 -10.45556,10.7213 -21.98387,-13.02372 z m -144.63287,10.65268 c -3.66209,-2.82709 -6.49051,-5.308 -6.28539,-5.51313 0.20513,-0.20512 2.0026,0.30795 3.99438,1.14017 4.93422,2.06165 11.31232,1.86549 16.54486,-0.50883 5.54586,-2.5165 11.24025,-2.50935 17.90153,0.0225 6.73976,2.56165 12.13084,2.53193 18.25037,-0.10062 5.60174,-2.4098 11.70173,-2.22929 18.9889,0.56193 2.97619,1.13998 6.27778,1.57973 9.75,1.29865 l 5.25,-0.42501 0,3.72529 c 0,4.33933 -0.98647,4.93926 -8.12163,4.93926 -3.05766,0 -6.53017,-0.80204 -9.05967,-2.09249 -5.25908,-2.68299 -11.06188,-2.69114 -17.15161,-0.0241 -6.17127,2.70275 -12.52734,2.68985 -18.47195,-0.0375 -5.97345,-2.74055 -11.56504,-2.74197 -16.9053,-0.004 -2.31559,1.18709 -5.06876,2.15835 -6.11816,2.15835 -1.04939,0 -4.90424,-2.31308 -8.56633,-5.14017 z m -3.83766,-10.91884 c -2.05277,-1.08384 -5.5187,-2.09024 -7.70205,-2.23645 -2.566908,-0.17188 -4.888991,-1.12941 -6.571025,-2.7096 -2.421585,-2.27496 -2.480774,-2.53189 -0.856818,-3.71936 C 97.21204,289.39325 104.2257,289.72398 110,292 c 6.43243,2.53543 12.5852,2.54288 18.1408,0.022 5.57539,-2.5299 11.00276,-2.53651 17.61993,-0.0215 6.73976,2.56165 12.13084,2.53193 18.25037,-0.10062 5.60174,-2.4098 11.70173,-2.22929 18.9889,0.56193 2.97619,1.13998 6.27778,1.57973 9.75,1.29865 l 5.25,-0.42501 0,3.72529 c 0,4.33933 -0.98647,4.93926 -8.12163,4.93926 -3.05766,0 -6.53017,-0.80204 -9.05967,-2.09249 -5.24253,-2.67454 -11.12237,-2.68938 -16.8187,-0.0425 -5.84843,2.7176 -13.15157,2.7176 -19,0 -5.69633,-2.64692 -11.57617,-2.63208 -16.8187,0.0425 -5.30984,2.70888 -13.31888,2.72344 -18.41361,0.0335 z m -0.15118,-14.07756 c -4.76387,-2.51249 -11.180974,-2.72605 -15.604495,-0.51931 -4.362522,2.17631 -4.692035,2.12842 -7.52838,-1.09412 -2.946662,-3.34788 -3.066918,-4.25 -0.56654,-4.25 1.054402,0 4.016709,-0.9 6.582905,-2 2.566196,-1.1 6.411844,-2 8.54589,-2 2.13404,0 6.16339,0.9 8.95411,2 6.39139,2.51925 12.27482,2.51201 17.8592,-0.022 5.54586,-2.5165 11.24025,-2.50935 17.90153,0.0225 6.73976,2.56165 12.13084,2.53193 18.25037,-0.10062 5.60174,-2.4098 11.70173,-2.22929 18.9889,0.56193 2.97619,1.13998 6.27778,1.57973 9.75,1.29865 l 5.25,-0.42501 0,3.72529 c 0,4.33933 -0.98647,4.93926 -8.12163,4.93926 -3.05766,0 -6.53017,-0.80204 -9.05967,-2.09249 -5.25908,-2.68299 -11.06188,-2.69114 -17.15161,-0.0241 -6.17127,2.70275 -12.52734,2.68985 -18.47195,-0.0375 -5.97345,-2.74055 -11.56504,-2.74197 -16.9053,-0.004 -5.48522,2.81201 -13.36543,2.8212 -18.67333,0.0218 z m 34.84537,-14.15359 -5.03812,-2.20984 3.22483,-2.7932 c 5.79422,-5.01871 6.75884,-13.37653 2.21112,-19.15802 -1.14824,-1.45976 -1.87123,-2.8706 -1.60663,-3.1352 1.19968,-1.19967 16.00385,17.36598 16.61487,20.83642 0.31162,1.76991 1.53102,0.0326 1.57924,-2.25 0.0832,-3.93802 4.01041,-3.94956 6.04362,-0.0178 0.88346,1.70841 2.90807,3.89787 4.49914,4.86546 l 2.89286,1.75925 -3.19141,0.11002 c -1.75527,0.0605 -5.2164,1.03907 -7.6914,2.17457 -5.90962,2.71125 -13.09494,2.64443 -19.53812,-0.1817 z m -15.98224,-5.60401 c -6.42634,-2.88108 -8.44347,-10.3728 -4.52373,-16.80136 2.41537,-3.96131 8.13147,-5.99896 12.32625,-4.394 2.73277,1.04559 2.7544,1.11815 1.21854,4.08818 -0.85999,1.66303 -2.44946,3.57691 -3.53216,4.25307 -1.0827,0.67615 -1.96854,1.79613 -1.96854,2.48883 0,2.49188 2.56453,1.10134 5.9563,-3.22963 3.91139,-4.99447 5.54242,-4.69992 6.6494,1.20081 1.7315,9.22969 -7.44788,16.28474 -16.12606,12.3941 z m 48.80677,1.16765 C 174.87149,266.83378 169,261.8123 169,260.18669 c 0,-0.55599 1.9125,-1.33181 4.25,-1.72404 2.3375,-0.39222 5.29243,-1.10702 6.56651,-1.58843 l 2.31651,-0.87529 -3.56651,-4.35246 C 176.60493,249.25262 175,246.81362 175,246.22646 c 0,-0.58715 1.35187,-1.36447 3.00416,-1.72737 4.49313,-0.98686 10.06575,2.11988 12.40768,6.91729 1.73488,3.55385 1.78116,4.28599 0.5,7.90941 -2.06197,5.83174 -7.57739,9.04888 -13.62543,7.94769 z M 162,255.69417 c 0,-1.32829 3.98236,-13.84122 4.65333,-14.62117 0.20203,-0.23485 0.993,0.42865 1.7577,1.47443 1.2062,1.64958 1.14366,2.36841 -0.47216,5.427 -1.02439,1.93906 -2.11328,4.76307 -2.41975,6.27557 -0.5531,2.72963 -3.51912,3.94682 -3.51912,1.44417 z m 6.78197,-2.662 c 0.23957,-1.63231 1.10881,-3.52656 1.93163,-4.20944 1.24362,-1.03212 1.97334,-0.6579 4.32482,2.21783 2.48533,3.03944 2.62437,3.54196 1.14517,4.13915 -0.92597,0.37385 -3.06815,0.71135 -4.7604,0.75 -2.85404,0.0652 -3.04527,-0.14458 -2.64122,-2.89754 z m -19.13325,-6.5777 C 146.54192,242.98097 144,239.88274 144,239.56951 144,239.25628 148.54814,239 154.10699,239 c 7.67404,0 9.99184,0.3009 9.62864,1.25 -0.26309,0.6875 -1.25811,3.725 -2.21114,6.75 -2.4375,7.73676 -4.55485,7.6395 -11.87577,-0.54553 z m 22.86956,-66.01567 -8.59743,-11.56121 -15.21043,-7.29174 C 140.34469,157.5754 129.45,152.3644 124.5,150.00586 c -4.95,-2.35854 -16.875,-8.09784 -26.5,-12.754 -9.625,-4.65615 -18.5125,-8.85648 -19.75,-9.33405 -1.2375,-0.47757 -2.25,-1.28215 -2.25,-1.78797 0,-0.92396 10.178217,-15.60694 12.34265,-17.80537 0.883384,-0.89726 2.932735,0.12311 8.65735,4.31047 4.125,3.0173 14.17315,10.29629 22.32922,16.17553 8.15606,5.87924 18.05606,13.03569 22,15.90322 3.94393,2.86754 7.52949,5.23004 7.9679,5.25 0.43842,0.02 -0.50597,-1.65119 -2.09865,-3.71369 -6.59879,-8.54537 -39.36886,-52.961429 -40.56144,-54.976362 -0.47466,-0.801973 2.3175,-3.481082 8.06856,-7.741861 4.83693,-3.583525 9.28193,-6.519162 9.8778,-6.523638 0.59586,-0.0045 5.61678,9.329361 11.15759,20.741861 5.54082,11.4125 15.14283,31.01509 21.3378,43.5613 l 11.26359,22.81131 10.07882,7.38808 c 15.06526,11.04331 14.60765,10.66045 11.39128,9.53049 -1.47814,-0.5193 -4.85314,-2.03272 -7.5,-3.36317 -9.93571,-4.9942 -9.97324,-4.95371 -4.85463,5.23803 2.50922,4.99618 4.35875,9.08396 4.11005,9.08396 -0.2487,0 -4.32103,-5.20254 -9.04961,-11.5612 z M 199.25,172.33772 C 198.5625,172.06031 198,171.21584 198,170.46113 198,169.31275 190.84554,152.97406 180.50165,130.5 170.27301,108.27635 164.92968,96.627225 162.61277,91.5 161.12156,88.2 157.72256,80.775 155.05944,75 l -4.84204,-10.5 8.1413,-2.62564 c 4.47772,-1.444102 9.73546,-2.909482 11.68389,-3.256402 l 3.54258,-0.630762 5.23096,21.256402 c 2.87703,11.691021 5.89594,23.731402 6.7087,26.756402 0.81275,3.025 3.91718,15.4 6.89873,27.5 l 5.42099,22 0.0777,-49.75 L 198,56 l 4.40063,0 c 6.69394,0 26.12998,3.568433 35.4194,6.50296 19.76153,6.242667 34.63255,14.331408 50.42446,27.427215 22.03342,18.271715 38.82695,44.470195 46.59654,72.692165 l 1.9608,7.12234 -3.47022,-0.78266 c -3.58445,-0.80842 -6.16782,-0.3064 -12.54949,2.43871 -5.11151,2.19875 -12.36792,1.98015 -17.78212,-0.53568 -5.69633,-2.64692 -11.57617,-2.63208 -16.8187,0.0425 -5.02359,2.56284 -12.7412,2.74687 -17.62038,0.42015 l -3.50693,-1.67234 3.95234,-1.76952 c 5.28935,-2.36811 7.98517,-6.95712 7.98993,-13.601 0.003,-4.40585 -0.47601,-5.76162 -3.08761,-8.73606 -3.80588,-4.33465 -9.33369,-6.07761 -14.63388,-4.61416 -3.22155,0.88951 -3.98723,0.74473 -5.98448,-1.1316 -2.96671,-2.78707 -2.90045,-4.6205 0.20971,-5.80298 4.33379,-1.6477 2.78271,-3 -3.44098,-3 -6.5853,0 -8.54828,1.28991 -4.31525,2.83564 2.18564,0.79811 0.68056,1.02281 -7.2702,1.08541 L 228.44715,135 l 0.38146,-4 c 0.32873,-3.44704 0.71254,-4 2.77643,-4 1.31723,0 2.39496,-0.45 2.39496,-1 0,-1.45929 -4.31359,-1.2224 -6.47135,0.35539 -1.14881,0.84003 -1.61031,1.98943 -1.21373,3.02289 0.35193,0.91713 -0.26313,4.08101 -1.3668,7.03085 l -2.00669,5.36334 -3.86321,-0.98058 c -3.16712,-0.80391 -4.68859,-0.61548 -8.44404,1.04573 -13.81367,6.11045 -10.30484,27.01539 4.56616,27.2043 L 218.5,169.08383 215,171 c -3.32915,1.82263 -12.59739,2.60982 -15.75,1.33772 z m 32.75,-1.2766 c -2.475,-1.0305 -5.33164,-2.14364 -6.3481,-2.47364 -1.6792,-0.54516 -1.57371,-0.9125 1.15423,-4.01946 4.9458,-5.63295 5.33415,-12.57738 1.01072,-18.07372 -1.12467,-1.42979 -1.82837,-2.81612 -1.56377,-3.08072 1.19968,-1.19967 16.00385,17.36598 16.61487,20.83642 0.37761,2.1447 1.56463,0.84305 1.59589,-1.75 0.0529,-4.38719 3.83951,-4.74786 5.99924,-0.5714 0.8682,1.67891 2.72681,3.80494 4.13025,4.72451 l 2.5517,1.67194 -5.32251,2.29731 C 245.2894,173.4422 238.10085,173.60131 232,171.06112 z m -20.52036,-5.95529 c -6.42634,-2.88108 -8.44347,-10.3728 -4.52373,-16.80136 2.41537,-3.96131 8.13147,-5.99896 12.32625,-4.394 2.73277,1.04559 2.7544,1.11815 1.21854,4.08818 -0.85999,1.66303 -2.44946,3.57691 -3.53216,4.25307 -1.0827,0.67615 -1.96854,1.79613 -1.96854,2.48883 0,2.49188 2.56453,1.10134 5.9563,-3.22963 3.91139,-4.99447 5.54242,-4.69992 6.6494,1.20081 1.7315,9.22969 -7.44788,16.28474 -16.12606,12.3941 z m 48.80677,1.16765 C 257.87149,165.83378 252,160.8123 252,159.18669 c 0,-0.55599 1.9125,-1.33181 4.25,-1.72404 2.3375,-0.39222 5.29243,-1.10702 6.56651,-1.58843 l 2.31651,-0.87529 -3.56651,-4.35246 C 259.60493,148.25262 258,145.81362 258,145.22646 c 0,-0.58715 1.35187,-1.36447 3.00416,-1.72737 4.49313,-0.98686 10.06575,2.11988 12.40768,6.91729 1.73488,3.55385 1.78116,4.28599 0.5,7.90941 -2.06197,5.83174 -7.57739,9.04888 -13.62543,7.94769 z M 245,154.69417 c 0,-1.32829 3.98236,-13.84122 4.65333,-14.62117 0.20203,-0.23485 0.993,0.42865 1.7577,1.47443 1.2062,1.64958 1.14366,2.36841 -0.47216,5.427 -1.02439,1.93906 -2.11328,4.76307 -2.41975,6.27557 -0.5531,2.72963 -3.51912,3.94682 -3.51912,1.44417 z m 6.78197,-2.662 c 0.23957,-1.63231 1.10881,-3.52656 1.93163,-4.20944 1.24362,-1.03212 1.97334,-0.6579 4.32482,2.21783 2.48533,3.03944 2.62437,3.54196 1.14517,4.13915 -0.92597,0.37385 -3.06815,0.71135 -4.7604,0.75 -2.85404,0.0652 -3.04527,-0.14458 -2.64122,-2.89754 z m -19.13325,-6.5777 C 229.54192,141.98097 227,138.88274 227,138.56951 227,138.25628 231.54814,138 237.10699,138 c 7.67404,0 9.99184,0.3009 9.62864,1.25 -0.26309,0.6875 -1.25811,3.725 -2.21114,6.75 -2.4375,7.73676 -4.55485,7.6395 -11.87577,-0.54553 z"
       id="path3092"
       inkscape:connector-curvature="0" />
    <path
       style="fill:#033161"
       d="m 176.68982,337.93526 c -13.26266,-2.33502 -15.03803,-3.13417 -10.83264,-4.8761 3.70377,-1.53415 11.04343,-0.93361 17.14282,1.40265 2.97619,1.13998 6.27778,1.57973 9.75,1.29865 4.95414,-0.40105 5.25,-0.29357 5.25,1.90727 0,2.15712 -0.39427,2.32621 -5.25,2.25151 -2.8875,-0.0444 -10.11458,-0.93721 -16.06018,-1.98398 z M 146,328.36697 c -1.925,-0.85511 -5.525,-2.18154 -8,-2.94761 -2.475,-0.76608 -5.82642,-2.27616 -7.44761,-3.35574 l -2.94761,-1.96286 2.76271,-1.05038 c 4.19703,-1.59571 9.56718,-1.26424 15.39324,0.95012 6.73976,2.56165 12.13084,2.53193 18.25037,-0.10062 5.60174,-2.4098 11.70173,-2.22929 18.9889,0.56193 2.97619,1.13998 6.27778,1.57973 9.75,1.29865 l 5.25,-0.42501 0,3.72529 c 0,4.33933 -0.98647,4.93926 -8.12163,4.93926 -3.05766,0 -6.53017,-0.80204 -9.05967,-2.09249 -5.24253,-2.67454 -11.12237,-2.68938 -16.8187,-0.0425 -5.37227,2.49635 -13.02954,2.70986 -18,0.50192 z m -32.39465,-17.50714 c -3.66209,-2.82709 -6.49051,-5.308 -6.28539,-5.51313 0.20513,-0.20512 2.0026,0.30795 3.99438,1.14017 4.93422,2.06165 11.31232,1.86549 16.54486,-0.50883 5.54586,-2.5165 11.24025,-2.50935 17.90153,0.0225 6.73976,2.56165 12.13084,2.53193 18.25037,-0.10062 5.60174,-2.4098 11.70173,-2.22929 18.9889,0.56193 2.97619,1.13998 6.27778,1.57973 9.75,1.29865 l 5.25,-0.42501 0,3.72529 c 0,4.33933 -0.98647,4.93926 -8.12163,4.93926 -3.05766,0 -6.53017,-0.80204 -9.05967,-2.09249 -5.25908,-2.68299 -11.06188,-2.69114 -17.15161,-0.0241 -6.17127,2.70275 -12.52734,2.68985 -18.47195,-0.0375 -5.97345,-2.74055 -11.56504,-2.74197 -16.9053,-0.004 -2.31559,1.18709 -5.06876,2.15835 -6.11816,2.15835 -1.04939,0 -4.90424,-2.31308 -8.56633,-5.14017 z m -3.83766,-10.91884 c -2.05277,-1.08384 -5.5187,-2.09024 -7.70205,-2.23645 -2.566908,-0.17188 -4.888991,-1.12941 -6.571025,-2.7096 -2.421585,-2.27496 -2.480774,-2.53189 -0.856818,-3.71936 C 97.21204,289.39325 104.2257,289.72398 110,292 c 6.43243,2.53543 12.5852,2.54288 18.1408,0.022 5.57539,-2.5299 11.00276,-2.53651 17.61993,-0.0215 6.73976,2.56165 12.13084,2.53193 18.25037,-0.10062 5.60174,-2.4098 11.70173,-2.22929 18.9889,0.56193 2.97619,1.13998 6.27778,1.57973 9.75,1.29865 l 5.25,-0.42501 0,3.72529 c 0,4.33933 -0.98647,4.93926 -8.12163,4.93926 -3.05766,0 -6.53017,-0.80204 -9.05967,-2.09249 -5.24253,-2.67454 -11.12237,-2.68938 -16.8187,-0.0425 -5.84843,2.7176 -13.15157,2.7176 -19,0 -5.69633,-2.64692 -11.57617,-2.63208 -16.8187,0.0425 -5.30984,2.70888 -13.31888,2.72344 -18.41361,0.0335 z m -0.15118,-14.07756 c -4.76387,-2.51249 -11.180974,-2.72605 -15.604495,-0.51931 -4.362522,2.17631 -4.692035,2.12842 -7.52838,-1.09412 -2.946662,-3.34788 -3.066918,-4.25 -0.56654,-4.25 1.054402,0 4.016709,-0.9 6.582905,-2 2.566196,-1.1 6.411844,-2 8.54589,-2 2.13404,0 6.16339,0.9 8.95411,2 6.39139,2.51925 12.27482,2.51201 17.8592,-0.022 5.54586,-2.5165 11.24025,-2.50935 17.90153,0.0225 6.73976,2.56165 12.13084,2.53193 18.25037,-0.10062 5.60174,-2.4098 11.70173,-2.22929 18.9889,0.56193 2.97619,1.13998 6.27778,1.57973 9.75,1.29865 l 5.25,-0.42501 0,3.72529 c 0,4.33933 -0.98647,4.93926 -8.12163,4.93926 -3.05766,0 -6.53017,-0.80204 -9.05967,-2.09249 -5.25908,-2.68299 -11.06188,-2.69114 -17.15161,-0.0241 -6.17127,2.70275 -12.52734,2.68985 -18.47195,-0.0375 -5.97345,-2.74055 -11.56504,-2.74197 -16.9053,-0.004 -5.48522,2.81201 -13.36543,2.8212 -18.67333,0.0218 z M 75.616704,268.19211 C 71.247222,260.99917 65.948472,248.727 62.50296,237.82003 59.568433,228.53061 56,209.09457 56,202.40063 L 56,198 l 71,0 71,0 0,-2.83227 c 0,-2.80401 0.0524,-2.82803 5.25,-2.40727 3.47222,0.28108 6.77381,-0.15867 9.75,-1.29865 7.28717,-2.79122 13.38716,-2.97173 18.9889,-0.56193 6.11953,2.63255 11.51061,2.66227 18.25037,0.10062 6.61717,-2.51505 12.04454,-2.50844 17.61993,0.0215 5.5556,2.52092 11.70837,2.51347 18.1408,-0.022 6.41688,-2.5293 11.60049,-2.53594 17.1408,-0.022 5.5963,2.53938 12.45219,2.54737 18.8592,0.022 5.80974,-2.28999 9.93501,-2.51456 14.679,-0.79911 2.84757,1.02969 3.321,1.67119 3.321,4.5 l 0,3.29911 -71,0 -71,0 0,37.39301 c 0,33.17505 -0.17843,37.46148 -1.58179,38 C 193.09221,274.66932 184.44937,273.88845 181,272 l -3.5,-1.91617 3.5,-0.0456 c 4.45323,-0.0581 9.46075,-3.09471 11.45145,-6.9443 0.8517,-1.64701 1.54855,-5.25125 1.54855,-8.00942 0,-4.17905 -0.51523,-5.60168 -3.09135,-8.53572 -3.80588,-4.33465 -9.33369,-6.07761 -14.63388,-4.61416 -3.22155,0.88951 -3.98723,0.74473 -5.98448,-1.1316 -2.96671,-2.78707 -2.90045,-4.6205 0.20971,-5.80298 4.33379,-1.6477 2.78271,-3 -3.44098,-3 -6.5853,0 -8.54828,1.28991 -4.31525,2.83564 2.18564,0.79811 0.68056,1.02281 -7.2702,1.08541 L 145.44715,236 l 0.38146,-4 c 0.32873,-3.44704 0.71254,-4 2.77643,-4 1.31723,0 2.39496,-0.45 2.39496,-1 0,-1.45929 -4.31359,-1.2224 -6.47135,0.35539 -1.14881,0.84003 -1.61031,1.98943 -1.21373,3.02289 0.35193,0.91713 -0.26313,4.08101 -1.3668,7.03085 l -2.00669,5.36334 -3.86321,-0.98058 c -5.16267,-1.31043 -12.16619,1.66363 -15.04781,6.39008 -4.44419,7.2894 -1.54924,17.34039 5.96326,20.70383 l 3.95234,1.76952 -3.50693,1.67234 c -4.87918,2.32672 -12.59679,2.14269 -17.62038,-0.42015 -5.24253,-2.67454 -11.12237,-2.68938 -16.8187,-0.0425 -2.501625,1.16244 -6.577242,2.10078 -9.177596,2.11299 -4.635314,0.0218 -4.709489,-0.0305 -8.2057,-5.78593 z m 68.845176,3.51773 -5.03812,-2.20984 3.22483,-2.7932 c 5.79422,-5.01871 6.75884,-13.37653 2.21112,-19.15802 -1.14824,-1.45976 -1.87123,-2.8706 -1.60663,-3.1352 1.19968,-1.19967 16.00385,17.36598 16.61487,20.83642 0.31162,1.76991 1.53102,0.0326 1.57924,-2.25 0.0832,-3.93802 4.01041,-3.94956 6.04362,-0.0178 0.88346,1.70841 2.90807,3.89787 4.49914,4.86546 l 2.89286,1.75925 -3.19141,0.11002 c -1.75527,0.0605 -5.2164,1.03907 -7.6914,2.17457 -5.90962,2.71125 -13.09494,2.64443 -19.53812,-0.1817 z m -15.98224,-5.60401 c -6.42634,-2.88108 -8.44347,-10.3728 -4.52373,-16.80136 2.41537,-3.96131 8.13147,-5.99896 12.32625,-4.394 2.73277,1.04559 2.7544,1.11815 1.21854,4.08818 -0.85999,1.66303 -2.44946,3.57691 -3.53216,4.25307 -1.0827,0.67615 -1.96854,1.79613 -1.96854,2.48883 0,2.49188 2.56453,1.10134 5.9563,-3.22963 3.91139,-4.99447 5.54242,-4.69992 6.6494,1.20081 1.7315,9.22969 -7.44788,16.28474 -16.12606,12.3941 z m 48.80677,1.16765 C 174.87149,266.83378 169,261.8123 169,260.18669 c 0,-0.55599 1.9125,-1.33181 4.25,-1.72404 2.3375,-0.39222 5.29243,-1.10702 6.56651,-1.58843 l 2.31651,-0.87529 -3.56651,-4.35246 C 176.60493,249.25262 175,246.81362 175,246.22646 c 0,-0.58715 1.35187,-1.36447 3.00416,-1.72737 4.49313,-0.98686 10.06575,2.11988 12.40768,6.91729 1.73488,3.55385 1.78116,4.28599 0.5,7.90941 -2.06197,5.83174 -7.57739,9.04888 -13.62543,7.94769 z M 162,255.69417 c 0,-1.32829 3.98236,-13.84122 4.65333,-14.62117 0.20203,-0.23485 0.993,0.42865 1.7577,1.47443 1.2062,1.64958 1.14366,2.36841 -0.47216,5.427 -1.02439,1.93906 -2.11328,4.76307 -2.41975,6.27557 -0.5531,2.72963 -3.51912,3.94682 -3.51912,1.44417 z m 6.78197,-2.662 c 0.23957,-1.63231 1.10881,-3.52656 1.93163,-4.20944 1.24362,-1.03212 1.97334,-0.6579 4.32482,2.21783 2.48533,3.03944 2.62437,3.54196 1.14517,4.13915 -0.92597,0.37385 -3.06815,0.71135 -4.7604,0.75 -2.85404,0.0652 -3.04527,-0.14458 -2.64122,-2.89754 z m -19.13325,-6.5777 C 146.54192,242.98097 144,239.88274 144,239.56951 144,239.25628 148.54814,239 154.10699,239 c 7.67404,0 9.99184,0.3009 9.62864,1.25 -0.26309,0.6875 -1.25811,3.725 -2.21114,6.75 -2.4375,7.73676 -4.55485,7.6395 -11.87577,-0.54553 z M 199.25,186.33772 C 198.56198,186.0601 198,184.14787 198,182.08439 l 0,-3.74894 5.25,0.42501 c 3.47222,0.28108 6.77381,-0.15867 9.75,-1.29865 7.28717,-2.79122 13.38716,-2.97173 18.9889,-0.56193 6.11953,2.63255 11.51061,2.66227 18.25037,0.10062 6.66128,-2.53181 12.35567,-2.53896 17.90153,-0.0225 5.58438,2.53397 11.46781,2.54121 17.8592,0.022 2.79072,-1.1 6.82007,-2 8.95411,-2 2.13405,0 5.97969,0.9 8.54589,2 5.89574,2.52721 12.75943,2.519 18.3592,-0.022 4.35216,-1.97484 12.56776,-2.62946 14.8438,-1.18276 0.66165,0.42056 1.50111,2.62894 1.86546,4.9075 l 0.66247,4.14285 -4.26503,-1.46942 c -4.72544,-1.62805 -8.40603,-1.17477 -14.17606,1.74583 -4.91771,2.48918 -11.7935,2.38386 -17.5947,-0.26952 -5.85503,-2.678 -11.69373,-2.65913 -17.01384,0.055 -5.47231,2.79176 -12.94894,2.76511 -18.47114,-0.0659 -5.34026,-2.7377 -10.93185,-2.73628 -16.9053,0.004 -5.94461,2.72733 -12.30068,2.74023 -18.47195,0.0375 -6.08973,-2.66703 -11.89253,-2.65888 -17.15161,0.0241 -3.88511,1.98203 -12.62031,2.76622 -15.9313,1.43021 z m 0,-14 C 198.27019,171.94236 198,159.31433 198,113.91667 L 198,56 l 4.40063,0 c 6.69394,0 26.12998,3.568433 35.4194,6.50296 19.76153,6.242667 34.63255,14.331408 50.42446,27.427215 22.03342,18.271715 38.82695,44.470195 46.59654,72.692165 l 1.9608,7.12234 -3.47022,-0.78266 c -3.58445,-0.80842 -6.16782,-0.3064 -12.54949,2.43871 -5.11151,2.19875 -12.36792,1.98015 -17.78212,-0.53568 -5.69633,-2.64692 -11.57617,-2.63208 -16.8187,0.0425 -5.02359,2.56284 -12.7412,2.74687 -17.62038,0.42015 l -3.50693,-1.67234 3.95234,-1.76952 c 5.28935,-2.36811 7.98517,-6.95712 7.98993,-13.601 0.003,-4.40585 -0.47601,-5.76162 -3.08761,-8.73606 -3.80588,-4.33465 -9.33369,-6.07761 -14.63388,-4.61416 -3.22155,0.88951 -3.98723,0.74473 -5.98448,-1.1316 -2.96671,-2.78707 -2.90045,-4.6205 0.20971,-5.80298 4.33379,-1.6477 2.78271,-3 -3.44098,-3 -6.5853,0 -8.54828,1.28991 -4.31525,2.83564 2.18564,0.79811 0.68056,1.02281 -7.2702,1.08541 L 228.44715,135 l 0.38146,-4 c 0.32873,-3.44704 0.71254,-4 2.77643,-4 1.31723,0 2.39496,-0.45 2.39496,-1 0,-1.45929 -4.31359,-1.2224 -6.47135,0.35539 -1.14881,0.84003 -1.61031,1.98943 -1.21373,3.02289 0.35193,0.91713 -0.26313,4.08101 -1.3668,7.03085 l -2.00669,5.36334 -3.86321,-0.98058 c -3.16712,-0.80391 -4.68859,-0.61548 -8.44404,1.04573 -13.81367,6.11045 -10.30484,27.01539 4.56616,27.2043 L 218.5,169.08383 215,171 c -3.32915,1.82263 -12.59739,2.60982 -15.75,1.33772 z m 32.75,-1.2766 c -2.475,-1.0305 -5.33164,-2.14364 -6.3481,-2.47364 -1.6792,-0.54516 -1.57371,-0.9125 1.15423,-4.01946 4.9458,-5.63295 5.33415,-12.57738 1.01072,-18.07372 -1.12467,-1.42979 -1.82837,-2.81612 -1.56377,-3.08072 1.19968,-1.19967 16.00385,17.36598 16.61487,20.83642 0.37761,2.1447 1.56463,0.84305 1.59589,-1.75 0.0529,-4.38719 3.83951,-4.74786 5.99924,-0.5714 0.8682,1.67891 2.72681,3.80494 4.13025,4.72451 l 2.5517,1.67194 -5.32251,2.29731 C 245.2894,173.4422 238.10085,173.60131 232,171.06112 z m -20.52036,-5.95529 c -6.42634,-2.88108 -8.44347,-10.3728 -4.52373,-16.80136 2.41537,-3.96131 8.13147,-5.99896 12.32625,-4.394 2.73277,1.04559 2.7544,1.11815 1.21854,4.08818 -0.85999,1.66303 -2.44946,3.57691 -3.53216,4.25307 -1.0827,0.67615 -1.96854,1.79613 -1.96854,2.48883 0,2.49188 2.56453,1.10134 5.9563,-3.22963 3.91139,-4.99447 5.54242,-4.69992 6.6494,1.20081 1.7315,9.22969 -7.44788,16.28474 -16.12606,12.3941 z m 48.80677,1.16765 C 257.87149,165.83378 252,160.8123 252,159.18669 c 0,-0.55599 1.9125,-1.33181 4.25,-1.72404 2.3375,-0.39222 5.29243,-1.10702 6.56651,-1.58843 l 2.31651,-0.87529 -3.56651,-4.35246 C 259.60493,148.25262 258,145.81362 258,145.22646 c 0,-0.58715 1.35187,-1.36447 3.00416,-1.72737 4.49313,-0.98686 10.06575,2.11988 12.40768,6.91729 1.73488,3.55385 1.78116,4.28599 0.5,7.90941 -2.06197,5.83174 -7.57739,9.04888 -13.62543,7.94769 z M 245,154.69417 c 0,-1.32829 3.98236,-13.84122 4.65333,-14.62117 0.20203,-0.23485 0.993,0.42865 1.7577,1.47443 1.2062,1.64958 1.14366,2.36841 -0.47216,5.427 -1.02439,1.93906 -2.11328,4.76307 -2.41975,6.27557 -0.5531,2.72963 -3.51912,3.94682 -3.51912,1.44417 z m 6.78197,-2.662 c 0.23957,-1.63231 1.10881,-3.52656 1.93163,-4.20944 1.24362,-1.03212 1.97334,-0.6579 4.32482,2.21783 2.48533,3.03944 2.62437,3.54196 1.14517,4.13915 -0.92597,0.37385 -3.06815,0.71135 -4.7604,0.75 -2.85404,0.0652 -3.04527,-0.14458 -2.64122,-2.89754 z m -19.13325,-6.5777 C 229.54192,141.98097 227,138.88274 227,138.56951 227,138.25628 231.54814,138 237.10699,138 c 7.67404,0 9.99184,0.3009 9.62864,1.25 -0.26309,0.6875 -1.25811,3.725 -2.21114,6.75 -2.4375,7.73676 -4.55485,7.6395 -11.87577,-0.54553 z"
       id="path3090"
       inkscape:connector-curvature="0" />
  </g>
</svg>
